<?xml version="1.0" encoding="utf-8"?>
<!-- Generator: Adobe Illustrator 16.0.0, SVG Export Plug-In . SVG Version: 6.00 Build 0)  -->
<!DOCTYPE svg PUBLIC "-//W3C//DTD SVG 1.1//EN" "http://www.w3.org/Graphics/SVG/1.1/DTD/svg11.dtd">
<svg version="1.1" id="Layer_1" xmlns="http://www.w3.org/2000/svg" xmlns:xlink="http://www.w3.org/1999/xlink" x="0px" y="0px"
	 width="265px" height="75px" viewBox="0 0 265 75" enable-background="new 0 0 265 75" xml:space="preserve">
<g>
	<g>
		<path fill="#2B3F3E" d="M17.408,51.836c-1.68-0.992-2.977-2.4-3.889-4.224s-1.367-3.936-1.367-6.336s0.471-4.528,1.416-6.384
			c0.943-1.855,2.264-3.295,3.959-4.32c1.696-1.024,3.648-1.536,5.856-1.536c1.216,0,2.424,0.168,3.624,0.504
			c1.2,0.336,2.248,0.825,3.145,1.464c0.576,0.384,0.983,0.76,1.224,1.128c0.239,0.368,0.36,0.776,0.36,1.224
			c0,0.448-0.121,0.816-0.36,1.104c-0.24,0.288-0.552,0.432-0.937,0.432c-0.224,0-0.464-0.063-0.72-0.192
			c-0.257-0.127-0.472-0.256-0.647-0.384c-0.177-0.127-0.297-0.208-0.36-0.24c-0.833-0.543-1.624-0.976-2.376-1.296
			c-0.752-0.319-1.672-0.48-2.76-0.48c-2.336,0-4.152,0.792-5.448,2.376s-1.944,3.785-1.944,6.6c0,2.816,0.648,4.992,1.944,6.528
			s3.112,2.304,5.448,2.304c1.088,0,2.023-0.16,2.808-0.48c0.784-0.32,1.575-0.751,2.376-1.296c0.352-0.224,0.688-0.416,1.008-0.576
			c0.32-0.16,0.592-0.24,0.816-0.24c0.352,0,0.648,0.144,0.888,0.432c0.24,0.288,0.36,0.656,0.36,1.104
			c0,0.417-0.113,0.792-0.336,1.128c-0.225,0.336-0.641,0.712-1.248,1.128c-0.896,0.608-1.977,1.097-3.24,1.464
			c-1.265,0.367-2.537,0.552-3.816,0.552C21.016,53.324,19.088,52.829,17.408,51.836z"/>
		<path fill="#2B3F3E" d="M40.399,51.836c-1.68-0.992-2.976-2.408-3.888-4.248c-0.912-1.84-1.368-3.976-1.368-6.408
			c0-2.431,0.456-4.567,1.368-6.408c0.912-1.84,2.208-3.256,3.888-4.248c1.681-0.992,3.624-1.488,5.832-1.488
			s4.159,0.497,5.856,1.488c1.695,0.992,3,2.408,3.912,4.248c0.912,1.84,1.367,3.977,1.367,6.408c0,2.432-0.455,4.568-1.367,6.408
			c-0.912,1.84-2.217,3.256-3.912,4.248c-1.697,0.992-3.648,1.488-5.856,1.488S42.08,52.829,40.399,51.836z M51.535,47.828
			c1.232-1.52,1.849-3.735,1.849-6.648c0-2.848-0.624-5.047-1.872-6.6c-1.248-1.552-3.008-2.328-5.28-2.328s-4.032,0.776-5.28,2.328
			c-1.248,1.553-1.871,3.752-1.871,6.6c0,2.88,0.615,5.088,1.848,6.624c1.231,1.536,3,2.304,5.304,2.304
			S50.303,49.349,51.535,47.828z"/>
		<path fill="#2B3F3E" d="M83.335,38.3v13.008c0,0.608-0.168,1.08-0.504,1.416s-0.809,0.504-1.416,0.504
			c-0.608,0-1.088-0.168-1.44-0.504c-0.352-0.336-0.527-0.808-0.527-1.416V38.54c0-2.175-0.425-3.759-1.271-4.752
			c-0.849-0.991-2.201-1.488-4.057-1.488c-2.145,0-3.856,0.656-5.136,1.968c-1.28,1.313-1.921,3.089-1.921,5.328v11.712
			c0,0.608-0.168,1.08-0.504,1.416s-0.809,0.504-1.416,0.504s-1.088-0.168-1.439-0.504c-0.353-0.336-0.527-0.808-0.527-1.416V31.052
			c0-0.576,0.175-1.04,0.527-1.392c0.352-0.352,0.832-0.528,1.439-0.528c0.576,0,1.033,0.176,1.369,0.528
			c0.336,0.353,0.504,0.8,0.504,1.344v2.448c0.768-1.44,1.84-2.536,3.215-3.288c1.377-0.751,2.944-1.128,4.705-1.128
			C80.535,29.036,83.335,32.125,83.335,38.3z"/>
		<path fill="#2B3F3E" d="M110.599,38.3v13.008c0,0.608-0.168,1.08-0.504,1.416s-0.809,0.504-1.416,0.504
			c-0.608,0-1.088-0.168-1.44-0.504c-0.352-0.336-0.527-0.808-0.527-1.416V38.54c0-2.175-0.425-3.759-1.271-4.752
			c-0.849-0.991-2.201-1.488-4.057-1.488c-2.145,0-3.856,0.656-5.136,1.968c-1.28,1.313-1.921,3.089-1.921,5.328v11.712
			c0,0.608-0.168,1.08-0.504,1.416s-0.809,0.504-1.416,0.504s-1.088-0.168-1.439-0.504c-0.353-0.336-0.527-0.808-0.527-1.416V31.052
			c0-0.576,0.175-1.04,0.527-1.392c0.352-0.352,0.832-0.528,1.439-0.528c0.576,0,1.033,0.176,1.369,0.528
			c0.336,0.353,0.504,0.8,0.504,1.344v2.448c0.768-1.44,1.84-2.536,3.215-3.288c1.377-0.751,2.944-1.128,4.705-1.128
			C107.799,29.036,110.599,32.125,110.599,38.3z"/>
		<path fill="#2B3F3E" d="M136.711,47.996c0.256,0.288,0.384,0.656,0.384,1.104c0,0.8-0.561,1.536-1.681,2.208
			c-1.151,0.672-2.368,1.176-3.647,1.512c-1.28,0.336-2.528,0.504-3.744,0.504c-3.616,0-6.473-1.072-8.567-3.216
			c-2.097-2.144-3.145-5.104-3.145-8.88c0-2.4,0.463-4.52,1.393-6.36c0.928-1.84,2.231-3.271,3.912-4.296
			c1.68-1.024,3.591-1.536,5.735-1.536c3.04,0,5.456,0.992,7.248,2.976c1.792,1.984,2.688,4.672,2.688,8.064
			c0,0.641-0.129,1.104-0.385,1.392s-0.672,0.432-1.248,0.432h-15.455c0.287,5.504,2.895,8.256,7.823,8.256
			c1.248,0,2.319-0.168,3.216-0.504s1.855-0.792,2.881-1.368c0.831-0.48,1.392-0.72,1.68-0.72
			C136.15,47.564,136.454,47.708,136.711,47.996z M122.479,33.98c-1.232,1.28-1.961,3.088-2.184,5.424h13.584
			c-0.064-2.368-0.656-4.184-1.776-5.448c-1.12-1.264-2.688-1.896-4.704-1.896C125.35,32.06,123.71,32.701,122.479,33.98z"/>
		<path fill="#2B3F3E" d="M146.862,51.836c-1.68-0.992-2.976-2.4-3.888-4.224s-1.368-3.936-1.368-6.336s0.472-4.528,1.416-6.384
			c0.943-1.855,2.264-3.295,3.96-4.32c1.695-1.024,3.648-1.536,5.855-1.536c1.217,0,2.424,0.168,3.625,0.504
			c1.199,0.336,2.247,0.825,3.144,1.464c0.576,0.384,0.983,0.76,1.224,1.128c0.24,0.368,0.36,0.776,0.36,1.224
			c0,0.448-0.12,0.816-0.36,1.104c-0.24,0.288-0.552,0.432-0.936,0.432c-0.225,0-0.465-0.063-0.721-0.192
			c-0.256-0.127-0.472-0.256-0.647-0.384c-0.177-0.127-0.296-0.208-0.36-0.24c-0.832-0.543-1.624-0.976-2.375-1.296
			c-0.753-0.319-1.673-0.48-2.761-0.48c-2.336,0-4.151,0.792-5.448,2.376c-1.295,1.584-1.943,3.785-1.943,6.6
			c0,2.816,0.648,4.992,1.943,6.528c1.297,1.536,3.112,2.304,5.448,2.304c1.088,0,2.023-0.16,2.808-0.48
			c0.784-0.32,1.576-0.751,2.377-1.296c0.352-0.224,0.688-0.416,1.008-0.576c0.319-0.16,0.592-0.24,0.816-0.24
			c0.352,0,0.647,0.144,0.887,0.432c0.24,0.288,0.361,0.656,0.361,1.104c0,0.417-0.113,0.792-0.337,1.128s-0.64,0.712-1.247,1.128
			c-0.896,0.608-1.977,1.097-3.24,1.464c-1.266,0.367-2.537,0.552-3.816,0.552C150.47,53.324,148.543,52.829,146.862,51.836z"/>
		<path fill="#2B3F3E" d="M221.549,29.66c0.336,0.353,0.504,0.816,0.504,1.392v20.304c0,0.544-0.168,0.992-0.504,1.344
			c-0.336,0.352-0.809,0.528-1.416,0.528c-0.575,0-1.031-0.168-1.367-0.504s-0.504-0.775-0.504-1.32v-2.4
			c-0.736,1.408-1.769,2.48-3.096,3.216c-1.328,0.736-2.825,1.104-4.488,1.104c-2.784,0-4.881-0.775-6.288-2.328
			c-1.409-1.552-2.112-3.847-2.112-6.888V31.052c0-0.576,0.176-1.04,0.528-1.392c0.352-0.352,0.831-0.528,1.44-0.528
			c0.607,0,1.079,0.176,1.416,0.528c0.336,0.353,0.504,0.816,0.504,1.392v12.96c0,2.081,0.415,3.608,1.248,4.584
			c0.831,0.977,2.143,1.464,3.936,1.464c2.047,0,3.695-0.664,4.943-1.992c1.248-1.328,1.873-3.08,1.873-5.256v-11.76
			c0-0.576,0.175-1.04,0.527-1.392c0.352-0.352,0.832-0.528,1.439-0.528S221.213,29.309,221.549,29.66z"/>
		<path fill="#2B3F3E" d="M246.485,30.524c1.567,0.992,2.784,2.4,3.647,4.224c0.864,1.824,1.297,3.936,1.297,6.336
			c0,2.432-0.433,4.568-1.297,6.408c-0.863,1.841-2.08,3.272-3.647,4.296c-1.568,1.025-3.376,1.536-5.425,1.536
			c-1.823,0-3.416-0.4-4.775-1.2c-1.36-0.8-2.393-1.936-3.096-3.408v2.592c0,0.576-0.168,1.041-0.504,1.392
			c-0.336,0.352-0.809,0.528-1.416,0.528c-0.608,0-1.088-0.176-1.44-0.528c-0.353-0.352-0.528-0.816-0.528-1.392V20.78
			c0-0.544,0.176-0.992,0.528-1.344s0.832-0.528,1.44-0.528c0.607,0,1.08,0.168,1.416,0.504s0.504,0.792,0.504,1.368v12.864
			c0.703-1.471,1.735-2.607,3.096-3.408c1.359-0.799,2.952-1.2,4.775-1.2C243.109,29.036,244.917,29.533,246.485,30.524z
			 M245.573,47.732c1.248-1.584,1.872-3.8,1.872-6.648c0-2.784-0.624-4.944-1.872-6.48c-1.248-1.536-3.009-2.304-5.28-2.304
			c-2.272,0-4.024,0.768-5.256,2.304c-1.232,1.536-1.848,3.728-1.848,6.576c0,2.849,0.615,5.048,1.848,6.6
			c1.231,1.553,2.983,2.328,5.256,2.328C242.564,50.108,244.325,49.316,245.573,47.732z"/>
	</g>
	<g>
		<g>
			<path fill="#2B3F3E" d="M186.354,34.209l-4.635-2.698c-0.668-0.39-1.471-0.393-2.142-0.003c-0.674,0.387-1.078,1.084-1.078,1.866
				v5.394c0,0.779,0.404,1.479,1.078,1.866c0.334,0.193,0.7,0.29,1.063,0.29c0.372,0,0.741-0.097,1.078-0.293l4.635-2.698
				c0.668-0.39,1.066-1.084,1.066-1.86C187.421,35.293,187.022,34.599,186.354,34.209z"/>
		</g>
		<g>
			<path fill="#498E4A" d="M193.682,53.723c-1.191,0-2.168-0.926-2.252-2.096c-0.019-0.051-0.029-0.105-0.029-0.162V20.674
				c0-0.06,0.012-0.117,0.03-0.17c0.087-1.166,1.063-2.088,2.251-2.088h0.361c1.244,0,2.256,1.014,2.256,2.258l-0.002,30.771
				c0.002,1.266-1.01,2.277-2.254,2.277H193.682z"/>
		</g>
		<g>
			<path fill="#2B98C7" d="M171.9,53.723c-1.191,0-2.168-0.926-2.252-2.096c-0.019-0.051-0.029-0.105-0.029-0.162V20.674
				c0-0.06,0.012-0.117,0.03-0.17c0.087-1.166,1.063-2.088,2.251-2.088h0.361c1.244,0,2.256,1.014,2.256,2.258l-0.002,30.771
				c0.002,1.266-1.01,2.277-2.254,2.277H171.9z"/>
		</g>
	</g>
</g>
</svg>
