<?xml version="1.0" encoding="utf-8"?>
<!-- Generator: Adobe Illustrator 16.0.0, SVG Export Plug-In . SVG Version: 6.00 Build 0)  -->
<!DOCTYPE svg PUBLIC "-//W3C//DTD SVG 1.1//EN" "http://www.w3.org/Graphics/SVG/1.1/DTD/svg11.dtd">
<svg version="1.1" id="Layer_1" xmlns="http://www.w3.org/2000/svg" xmlns:xlink="http://www.w3.org/1999/xlink" x="0px" y="0px"
	 width="110px" height="25px" viewBox="0 0 110 25" enable-background="new 0 0 110 25" xml:space="preserve">
<g>
	<g>
		<path fill="#2B3F3E" d="M7.198,19.09c-0.702-0.415-1.243-1.003-1.625-1.766c-0.381-0.762-0.571-1.645-0.571-2.648
			s0.196-1.893,0.592-2.668c0.395-0.776,0.946-1.377,1.654-1.806c0.709-0.428,1.525-0.642,2.448-0.642
			c0.508,0,1.013,0.07,1.514,0.211c0.502,0.141,0.939,0.345,1.314,0.612c0.241,0.161,0.411,0.318,0.512,0.472
			c0.1,0.154,0.15,0.324,0.15,0.511c0,0.188-0.051,0.341-0.15,0.461c-0.101,0.12-0.23,0.181-0.392,0.181
			c-0.094,0-0.194-0.027-0.301-0.08c-0.107-0.054-0.197-0.107-0.271-0.161c-0.074-0.053-0.124-0.087-0.15-0.101
			c-0.349-0.227-0.679-0.408-0.993-0.542c-0.314-0.133-0.699-0.2-1.153-0.2c-0.977,0-1.735,0.331-2.277,0.993
			C6.958,12.58,6.687,13.5,6.687,14.676s0.271,2.086,0.813,2.728c0.542,0.642,1.301,0.963,2.277,0.963
			c0.454,0,0.846-0.066,1.174-0.2c0.327-0.134,0.658-0.314,0.992-0.542c0.147-0.094,0.287-0.174,0.421-0.241
			c0.135-0.066,0.248-0.1,0.342-0.1c0.146,0,0.271,0.06,0.371,0.181c0.101,0.12,0.15,0.274,0.15,0.461
			c0,0.174-0.048,0.331-0.141,0.472c-0.094,0.14-0.268,0.298-0.521,0.471c-0.374,0.254-0.825,0.458-1.354,0.612
			c-0.528,0.154-1.06,0.231-1.595,0.231C8.706,19.711,7.9,19.504,7.198,19.09z"/>
		<path fill="#2B3F3E" d="M16.807,19.09c-0.702-0.415-1.243-1.007-1.624-1.775c-0.382-0.769-0.572-1.662-0.572-2.678
			c0-1.016,0.19-1.909,0.572-2.678c0.381-0.769,0.922-1.361,1.624-1.775c0.703-0.415,1.515-0.622,2.438-0.622
			s1.738,0.208,2.447,0.622s1.255,1.007,1.636,1.775c0.381,0.769,0.571,1.662,0.571,2.678c0,1.017-0.19,1.909-0.571,2.678
			c-0.381,0.769-0.927,1.361-1.636,1.775s-1.524,0.622-2.447,0.622S17.51,19.504,16.807,19.09z M21.461,17.415
			c0.515-0.635,0.772-1.562,0.772-2.778c0-1.19-0.261-2.11-0.782-2.758c-0.521-0.649-1.257-0.973-2.207-0.973
			c-0.949,0-1.685,0.324-2.207,0.973c-0.521,0.648-0.781,1.568-0.781,2.758c0,1.204,0.257,2.126,0.771,2.768
			s1.255,0.963,2.217,0.963C20.207,18.367,20.946,18.05,21.461,17.415z"/>
		<path fill="#2B3F3E" d="M34.751,13.433v5.436c0,0.254-0.07,0.452-0.211,0.592c-0.14,0.141-0.338,0.211-0.591,0.211
			c-0.255,0-0.455-0.07-0.603-0.211c-0.147-0.14-0.221-0.337-0.221-0.592v-5.336c0-0.909-0.177-1.571-0.531-1.986
			c-0.354-0.415-0.92-0.622-1.695-0.622c-0.896,0-1.612,0.274-2.146,0.822c-0.534,0.549-0.803,1.292-0.803,2.227v4.895
			c0,0.254-0.07,0.452-0.21,0.592c-0.141,0.141-0.339,0.211-0.592,0.211c-0.254,0-0.455-0.07-0.603-0.211
			c-0.146-0.14-0.22-0.337-0.22-0.592v-8.465c0-0.241,0.073-0.435,0.22-0.582c0.147-0.147,0.349-0.221,0.603-0.221
			c0.24,0,0.432,0.074,0.572,0.221c0.14,0.147,0.21,0.334,0.21,0.562v1.023c0.321-0.602,0.769-1.06,1.344-1.374
			c0.575-0.314,1.23-0.472,1.967-0.472C33.581,9.561,34.751,10.852,34.751,13.433z"/>
		<path fill="#2B3F3E" d="M46.146,13.433v5.436c0,0.254-0.07,0.452-0.211,0.592c-0.141,0.141-0.338,0.211-0.592,0.211
			s-0.455-0.07-0.602-0.211c-0.147-0.14-0.221-0.337-0.221-0.592v-5.336c0-0.909-0.178-1.571-0.531-1.986
			c-0.354-0.415-0.92-0.622-1.695-0.622c-0.896,0-1.611,0.274-2.146,0.822c-0.535,0.549-0.803,1.292-0.803,2.227v4.895
			c0,0.254-0.07,0.452-0.211,0.592c-0.141,0.141-0.338,0.211-0.592,0.211s-0.455-0.07-0.602-0.211
			c-0.147-0.14-0.221-0.337-0.221-0.592v-8.465c0-0.241,0.073-0.435,0.221-0.582c0.146-0.147,0.348-0.221,0.602-0.221
			c0.241,0,0.432,0.074,0.572,0.221s0.211,0.334,0.211,0.562v1.023c0.32-0.602,0.769-1.06,1.343-1.374
			c0.576-0.314,1.23-0.472,1.967-0.472C44.975,9.561,46.146,10.852,46.146,13.433z"/>
		<path fill="#2B3F3E" d="M57.058,17.485c0.107,0.12,0.161,0.274,0.161,0.461c0,0.334-0.234,0.642-0.702,0.922
			c-0.481,0.281-0.99,0.492-1.525,0.632c-0.534,0.14-1.056,0.21-1.563,0.21c-1.512,0-2.706-0.448-3.581-1.344
			c-0.877-0.896-1.314-2.133-1.314-3.711c0-1.003,0.193-1.889,0.582-2.658c0.388-0.769,0.933-1.367,1.635-1.795
			c0.702-0.428,1.501-0.642,2.396-0.642c1.271,0,2.281,0.415,3.03,1.244c0.748,0.829,1.123,1.953,1.123,3.37
			c0,0.268-0.054,0.461-0.161,0.582c-0.106,0.12-0.28,0.18-0.521,0.18h-6.459c0.12,2.3,1.21,3.45,3.271,3.45
			c0.521,0,0.969-0.07,1.343-0.21c0.375-0.14,0.776-0.331,1.204-0.572c0.348-0.201,0.582-0.301,0.702-0.301
			C56.824,17.304,56.951,17.364,57.058,17.485z M51.11,11.627c-0.516,0.535-0.819,1.291-0.913,2.267h5.678
			c-0.027-0.989-0.274-1.748-0.743-2.276c-0.468-0.528-1.123-0.792-1.966-0.792C52.311,10.825,51.625,11.092,51.11,11.627z"/>
		<path fill="#2B3F3E" d="M61.301,19.09c-0.702-0.415-1.244-1.003-1.625-1.766c-0.381-0.762-0.571-1.645-0.571-2.648
			s0.196-1.893,0.592-2.668c0.394-0.776,0.945-1.377,1.654-1.806c0.709-0.428,1.524-0.642,2.447-0.642
			c0.509,0,1.013,0.07,1.515,0.211s0.939,0.345,1.314,0.612c0.24,0.161,0.41,0.318,0.512,0.472c0.1,0.154,0.15,0.324,0.15,0.511
			c0,0.188-0.051,0.341-0.15,0.461c-0.102,0.12-0.23,0.181-0.392,0.181c-0.094,0-0.194-0.027-0.301-0.08
			c-0.107-0.054-0.197-0.107-0.271-0.161c-0.073-0.053-0.123-0.087-0.15-0.101c-0.347-0.227-0.679-0.408-0.992-0.542
			c-0.314-0.133-0.699-0.2-1.154-0.2c-0.976,0-1.734,0.331-2.276,0.993c-0.541,0.662-0.813,1.582-0.813,2.758
			s0.271,2.086,0.813,2.728c0.542,0.642,1.301,0.963,2.276,0.963c0.455,0,0.846-0.066,1.174-0.2s0.659-0.314,0.993-0.542
			c0.147-0.094,0.288-0.174,0.422-0.241c0.133-0.066,0.247-0.1,0.341-0.1c0.146,0,0.271,0.06,0.37,0.181
			c0.101,0.12,0.151,0.274,0.151,0.461c0,0.174-0.047,0.331-0.141,0.472c-0.094,0.14-0.268,0.298-0.521,0.471
			c-0.375,0.254-0.827,0.458-1.355,0.612c-0.528,0.154-1.06,0.231-1.595,0.231C62.809,19.711,62.003,19.504,61.301,19.09z"/>
		<path fill="#2B3F3E" d="M92.514,9.822c0.141,0.147,0.211,0.341,0.211,0.582v8.486c0,0.227-0.07,0.415-0.211,0.562
			c-0.14,0.147-0.338,0.221-0.591,0.221c-0.24,0-0.432-0.07-0.572-0.211c-0.14-0.14-0.21-0.324-0.21-0.552v-1.003
			c-0.308,0.589-0.739,1.037-1.294,1.344c-0.556,0.308-1.181,0.461-1.876,0.461c-1.164,0-2.04-0.324-2.628-0.973
			c-0.589-0.648-0.883-1.608-0.883-2.878v-5.457c0-0.241,0.074-0.435,0.221-0.582c0.147-0.147,0.348-0.221,0.603-0.221
			c0.254,0,0.45,0.074,0.591,0.221s0.211,0.341,0.211,0.582v5.417c0,0.87,0.174,1.508,0.522,1.916
			c0.347,0.408,0.895,0.612,1.645,0.612c0.854,0,1.544-0.277,2.065-0.832c0.521-0.555,0.783-1.287,0.783-2.197v-4.915
			c0-0.241,0.072-0.435,0.22-0.582s0.348-0.221,0.603-0.221C92.176,9.601,92.374,9.675,92.514,9.822z"/>
		<path fill="#2B3F3E" d="M102.936,10.183c0.655,0.415,1.164,1.003,1.524,1.765c0.361,0.763,0.542,1.645,0.542,2.648
			c0,1.016-0.181,1.909-0.542,2.678c-0.36,0.77-0.869,1.368-1.524,1.795c-0.655,0.428-1.411,0.642-2.267,0.642
			c-0.763,0-1.428-0.167-1.996-0.501c-0.568-0.334-1-0.809-1.294-1.424v1.083c0,0.241-0.07,0.435-0.211,0.582
			c-0.14,0.147-0.338,0.221-0.591,0.221c-0.255,0-0.455-0.074-0.603-0.221s-0.221-0.341-0.221-0.582V6.11
			c0-0.227,0.073-0.414,0.221-0.562c0.147-0.147,0.348-0.221,0.603-0.221c0.253,0,0.451,0.07,0.591,0.21
			c0.141,0.141,0.211,0.331,0.211,0.572v5.376c0.294-0.615,0.726-1.089,1.294-1.424s1.233-0.502,1.996-0.502
			C101.524,9.561,102.28,9.768,102.936,10.183z M102.555,17.375c0.521-0.662,0.782-1.588,0.782-2.778
			c0-1.164-0.261-2.066-0.782-2.708s-1.258-0.962-2.207-0.962s-1.682,0.32-2.196,0.962s-0.772,1.558-0.772,2.749
			s0.258,2.11,0.772,2.758c0.515,0.649,1.247,0.973,2.196,0.973S102.033,18.037,102.555,17.375z"/>
	</g>
	<g>
		<g>
			<path fill="#2B3F3E" d="M77.332,11.981l-1.291-0.752c-0.186-0.108-0.409-0.109-0.597,0c-0.188,0.108-0.301,0.302-0.301,0.52
				v1.502c0,0.217,0.113,0.412,0.301,0.52c0.093,0.054,0.195,0.081,0.297,0.081c0.103,0,0.206-0.027,0.3-0.082l1.291-0.752
				c0.187-0.108,0.298-0.302,0.298-0.519S77.519,12.09,77.332,11.981z"/>
		</g>
		<g>
			<path fill="#498E4A" d="M80.868,19.878c-0.498,0-0.906-0.387-0.941-0.875c-0.008-0.021-0.013-0.044-0.013-0.068V6.066
				c0-0.024,0.005-0.049,0.013-0.071c0.036-0.487,0.445-0.873,0.941-0.873h0.15c0.521,0,0.942,0.424,0.942,0.943v12.86
				c0,0.529-0.422,0.952-0.942,0.952H80.868z"/>
		</g>
		<g>
			<path fill="#2B98C7" d="M71.765,19.878c-0.498,0-0.905-0.387-0.94-0.875c-0.009-0.021-0.013-0.044-0.013-0.068V6.066
				c0-0.024,0.005-0.049,0.013-0.071c0.036-0.487,0.444-0.873,0.94-0.873h0.15c0.521,0,0.943,0.424,0.943,0.943l-0.001,12.86
				c0.001,0.529-0.422,0.952-0.942,0.952H71.765z"/>
		</g>
	</g>
</g>
</svg>
