<?xml version="1.0" encoding="utf-8"?>
<!-- Generator: Adobe Illustrator 16.0.0, SVG Export Plug-In . SVG Version: 6.00 Build 0)  -->
<!DOCTYPE svg PUBLIC "-//W3C//DTD SVG 1.1//EN" "http://www.w3.org/Graphics/SVG/1.1/DTD/svg11.dtd">
<svg version="1.1" id="Layer_1" xmlns="http://www.w3.org/2000/svg" xmlns:xlink="http://www.w3.org/1999/xlink" x="0px" y="0px"
	 width="265px" height="75px" viewBox="0 0 265 75" enable-background="new 0 0 265 75" xml:space="preserve">
<g>
	<g>
		<g>
			<g>
				<path fill="#2B3F3E" d="M17.408,47.836c-1.68-0.992-2.977-2.4-3.889-4.224s-1.367-3.936-1.367-6.336s0.471-4.528,1.416-6.384
					c0.943-1.855,2.264-3.295,3.959-4.32c1.696-1.024,3.648-1.536,5.856-1.536c1.216,0,2.424,0.168,3.624,0.504
					c1.2,0.336,2.248,0.825,3.145,1.464c0.576,0.384,0.983,0.76,1.224,1.128c0.239,0.368,0.36,0.776,0.36,1.224
					c0,0.448-0.121,0.816-0.36,1.104c-0.24,0.288-0.552,0.432-0.937,0.432c-0.224,0-0.464-0.063-0.72-0.192
					c-0.257-0.127-0.472-0.256-0.647-0.384c-0.177-0.127-0.297-0.208-0.36-0.24c-0.833-0.543-1.624-0.976-2.376-1.296
					c-0.752-0.319-1.672-0.48-2.76-0.48c-2.336,0-4.152,0.792-5.448,2.376s-1.944,3.785-1.944,6.6c0,2.816,0.648,4.992,1.944,6.528
					s3.112,2.304,5.448,2.304c1.088,0,2.023-0.16,2.808-0.48c0.784-0.32,1.575-0.751,2.376-1.296
					c0.352-0.224,0.688-0.416,1.008-0.576c0.32-0.16,0.592-0.24,0.816-0.24c0.352,0,0.648,0.144,0.888,0.432
					c0.24,0.288,0.36,0.656,0.36,1.104c0,0.417-0.113,0.792-0.336,1.128c-0.225,0.336-0.641,0.712-1.248,1.128
					c-0.896,0.608-1.977,1.097-3.24,1.464c-1.265,0.367-2.537,0.552-3.816,0.552C21.016,49.324,19.088,48.829,17.408,47.836z"/>
			</g>
			<g>
				<path fill="#2B3F3E" d="M40.399,47.836c-1.68-0.992-2.976-2.408-3.888-4.248c-0.912-1.84-1.368-3.976-1.368-6.408
					c0-2.431,0.456-4.567,1.368-6.408c0.912-1.84,2.208-3.256,3.888-4.248c1.681-0.992,3.624-1.488,5.832-1.488
					s4.159,0.497,5.856,1.488c1.695,0.992,3,2.408,3.912,4.248c0.912,1.84,1.367,3.977,1.367,6.408c0,2.432-0.455,4.568-1.367,6.408
					c-0.912,1.84-2.217,3.256-3.912,4.248c-1.697,0.992-3.648,1.488-5.856,1.488S42.08,48.829,40.399,47.836z M51.535,43.828
					c1.232-1.52,1.849-3.735,1.849-6.648c0-2.848-0.624-5.047-1.872-6.6c-1.248-1.552-3.008-2.328-5.28-2.328
					s-4.032,0.776-5.28,2.328c-1.248,1.553-1.871,3.752-1.871,6.6c0,2.88,0.615,5.088,1.848,6.624c1.231,1.536,3,2.304,5.304,2.304
					S50.303,45.349,51.535,43.828z"/>
			</g>
			<g>
				<path fill="#2B3F3E" d="M83.335,34.3v13.008c0,0.608-0.168,1.08-0.504,1.416s-0.809,0.504-1.416,0.504
					c-0.608,0-1.088-0.168-1.44-0.504c-0.352-0.336-0.527-0.808-0.527-1.416V34.54c0-2.175-0.425-3.759-1.271-4.752
					c-0.849-0.991-2.201-1.488-4.057-1.488c-2.145,0-3.856,0.656-5.136,1.968c-1.28,1.313-1.921,3.089-1.921,5.328v11.712
					c0,0.608-0.168,1.08-0.504,1.416s-0.809,0.504-1.416,0.504s-1.088-0.168-1.439-0.504c-0.353-0.336-0.527-0.808-0.527-1.416
					V27.052c0-0.576,0.175-1.04,0.527-1.392c0.352-0.352,0.832-0.528,1.439-0.528c0.576,0,1.033,0.176,1.369,0.528
					c0.336,0.353,0.504,0.8,0.504,1.344v2.448c0.768-1.44,1.84-2.536,3.215-3.288c1.377-0.751,2.944-1.128,4.705-1.128
					C80.535,25.036,83.335,28.125,83.335,34.3z"/>
			</g>
			<g>
				<path fill="#2B3F3E" d="M110.599,34.3v13.008c0,0.608-0.168,1.08-0.504,1.416s-0.809,0.504-1.416,0.504
					c-0.608,0-1.088-0.168-1.44-0.504c-0.352-0.336-0.527-0.808-0.527-1.416V34.54c0-2.175-0.425-3.759-1.271-4.752
					c-0.849-0.991-2.201-1.488-4.057-1.488c-2.145,0-3.856,0.656-5.136,1.968c-1.28,1.313-1.921,3.089-1.921,5.328v11.712
					c0,0.608-0.168,1.08-0.504,1.416s-0.809,0.504-1.416,0.504s-1.088-0.168-1.439-0.504c-0.353-0.336-0.527-0.808-0.527-1.416
					V27.052c0-0.576,0.175-1.04,0.527-1.392c0.352-0.352,0.832-0.528,1.439-0.528c0.576,0,1.033,0.176,1.369,0.528
					c0.336,0.353,0.504,0.8,0.504,1.344v2.448c0.768-1.44,1.84-2.536,3.215-3.288c1.377-0.751,2.944-1.128,4.705-1.128
					C107.799,25.036,110.599,28.125,110.599,34.3z"/>
			</g>
			<g>
				<path fill="#2B3F3E" d="M136.711,43.996c0.256,0.288,0.384,0.656,0.384,1.104c0,0.8-0.561,1.536-1.681,2.208
					c-1.151,0.672-2.368,1.176-3.647,1.512c-1.28,0.336-2.528,0.504-3.744,0.504c-3.616,0-6.473-1.072-8.567-3.216
					c-2.097-2.144-3.145-5.104-3.145-8.88c0-2.4,0.463-4.52,1.393-6.36c0.928-1.84,2.231-3.271,3.912-4.296
					c1.68-1.024,3.591-1.536,5.735-1.536c3.04,0,5.456,0.992,7.248,2.976c1.792,1.984,2.688,4.672,2.688,8.064
					c0,0.641-0.129,1.104-0.385,1.392s-0.672,0.432-1.248,0.432h-15.455c0.287,5.504,2.895,8.256,7.823,8.256
					c1.248,0,2.319-0.168,3.216-0.504s1.855-0.792,2.881-1.368c0.831-0.48,1.392-0.72,1.68-0.72
					C136.15,43.564,136.454,43.708,136.711,43.996z M122.479,29.98c-1.232,1.28-1.961,3.088-2.184,5.424h13.584
					c-0.064-2.368-0.656-4.184-1.776-5.448c-1.12-1.264-2.688-1.896-4.704-1.896C125.35,28.06,123.71,28.701,122.479,29.98z"/>
			</g>
			<g>
				<path fill="#2B3F3E" d="M146.862,47.836c-1.68-0.992-2.976-2.4-3.888-4.224s-1.368-3.936-1.368-6.336s0.472-4.528,1.416-6.384
					c0.943-1.855,2.264-3.295,3.96-4.32c1.695-1.024,3.648-1.536,5.855-1.536c1.217,0,2.424,0.168,3.625,0.504
					c1.199,0.336,2.247,0.825,3.144,1.464c0.576,0.384,0.983,0.76,1.224,1.128c0.24,0.368,0.36,0.776,0.36,1.224
					c0,0.448-0.12,0.816-0.36,1.104c-0.24,0.288-0.552,0.432-0.936,0.432c-0.225,0-0.465-0.063-0.721-0.192
					c-0.256-0.127-0.472-0.256-0.647-0.384c-0.177-0.127-0.296-0.208-0.36-0.24c-0.832-0.543-1.624-0.976-2.375-1.296
					c-0.753-0.319-1.673-0.48-2.761-0.48c-2.336,0-4.151,0.792-5.448,2.376c-1.295,1.584-1.943,3.785-1.943,6.6
					c0,2.816,0.648,4.992,1.943,6.528c1.297,1.536,3.112,2.304,5.448,2.304c1.088,0,2.023-0.16,2.808-0.48
					c0.784-0.32,1.576-0.751,2.377-1.296c0.352-0.224,0.688-0.416,1.008-0.576c0.319-0.16,0.592-0.24,0.816-0.24
					c0.352,0,0.647,0.144,0.887,0.432c0.24,0.288,0.361,0.656,0.361,1.104c0,0.417-0.113,0.792-0.337,1.128s-0.64,0.712-1.247,1.128
					c-0.896,0.608-1.977,1.097-3.24,1.464c-1.266,0.367-2.537,0.552-3.816,0.552C150.47,49.324,148.543,48.829,146.862,47.836z"/>
			</g>
			<g>
				<path fill="#2B3F3E" d="M221.549,25.66c0.336,0.353,0.504,0.816,0.504,1.392v20.304c0,0.544-0.168,0.992-0.504,1.344
					c-0.336,0.352-0.809,0.528-1.416,0.528c-0.575,0-1.031-0.168-1.367-0.504s-0.504-0.775-0.504-1.32v-2.4
					c-0.736,1.408-1.769,2.48-3.096,3.216c-1.328,0.736-2.825,1.104-4.488,1.104c-2.784,0-4.881-0.775-6.288-2.328
					c-1.409-1.552-2.112-3.847-2.112-6.888V27.052c0-0.576,0.176-1.04,0.528-1.392c0.352-0.352,0.831-0.528,1.44-0.528
					c0.607,0,1.079,0.176,1.416,0.528c0.336,0.353,0.504,0.816,0.504,1.392v12.96c0,2.081,0.415,3.608,1.248,4.584
					c0.831,0.977,2.143,1.464,3.936,1.464c2.047,0,3.695-0.664,4.943-1.992c1.248-1.328,1.873-3.08,1.873-5.256v-11.76
					c0-0.576,0.175-1.04,0.527-1.392c0.352-0.352,0.832-0.528,1.439-0.528S221.213,25.309,221.549,25.66z"/>
			</g>
			<g>
				<path fill="#2B3F3E" d="M246.485,26.524c1.567,0.992,2.784,2.4,3.647,4.224c0.864,1.824,1.297,3.936,1.297,6.336
					c0,2.432-0.433,4.568-1.297,6.408c-0.863,1.841-2.08,3.272-3.647,4.296c-1.568,1.025-3.376,1.536-5.425,1.536
					c-1.823,0-3.416-0.4-4.775-1.2c-1.36-0.8-2.393-1.936-3.096-3.408v2.592c0,0.576-0.168,1.041-0.504,1.392
					c-0.336,0.352-0.809,0.528-1.416,0.528c-0.608,0-1.088-0.176-1.44-0.528c-0.353-0.352-0.528-0.816-0.528-1.392V16.78
					c0-0.544,0.176-0.992,0.528-1.344s0.832-0.528,1.44-0.528c0.607,0,1.08,0.168,1.416,0.504s0.504,0.792,0.504,1.368v12.864
					c0.703-1.471,1.735-2.607,3.096-3.408c1.359-0.799,2.952-1.2,4.775-1.2C243.109,25.036,244.917,25.533,246.485,26.524z
					 M245.573,43.732c1.248-1.584,1.872-3.8,1.872-6.648c0-2.784-0.624-4.944-1.872-6.48c-1.248-1.536-3.009-2.304-5.28-2.304
					c-2.272,0-4.024,0.768-5.256,2.304c-1.232,1.536-1.848,3.728-1.848,6.576c0,2.849,0.615,5.048,1.848,6.6
					c1.231,1.553,2.983,2.328,5.256,2.328C242.564,46.108,244.325,45.316,245.573,43.732z"/>
			</g>
		</g>
		<g>
			<g>
				<g>
					<path fill="#2B3F3E" d="M186.354,30.209l-4.635-2.698c-0.668-0.39-1.471-0.393-2.142-0.003
						c-0.674,0.387-1.078,1.084-1.078,1.866v5.394c0,0.779,0.404,1.479,1.078,1.866c0.334,0.193,0.7,0.29,1.063,0.29
						c0.372,0,0.741-0.097,1.078-0.293l4.635-2.698c0.668-0.39,1.066-1.084,1.066-1.86
						C187.421,31.293,187.022,30.599,186.354,30.209z"/>
				</g>
			</g>
			<g>
				<g>
					<path fill="#498E4A" d="M193.682,49.723c-1.191,0-2.168-0.926-2.252-2.096c-0.019-0.051-0.029-0.105-0.029-0.162V16.674
						c0-0.06,0.012-0.117,0.03-0.17c0.087-1.166,1.063-2.088,2.251-2.088h0.361c1.244,0,2.256,1.014,2.256,2.258l-0.002,30.771
						c0.002,1.266-1.01,2.277-2.254,2.277H193.682z"/>
				</g>
			</g>
			<g>
				<g>
					<path fill="#2B98C7" d="M171.9,49.723c-1.191,0-2.168-0.926-2.252-2.096c-0.019-0.051-0.029-0.105-0.029-0.162V16.674
						c0-0.06,0.012-0.117,0.03-0.17c0.087-1.166,1.063-2.088,2.251-2.088h0.361c1.244,0,2.256,1.014,2.256,2.258l-0.002,30.771
						c0.002,1.266-1.01,2.277-2.254,2.277H171.9z"/>
				</g>
			</g>
		</g>
	</g>
	<g>
		<g>
			<g>
				<path fill="#2B3F3E" d="M106.968,63.22c-0.098,0-0.179-0.03-0.239-0.088c-0.062-0.058-0.093-0.136-0.093-0.231v-3.822
					c0-0.095,0.031-0.173,0.093-0.231c0.062-0.058,0.142-0.088,0.239-0.088h1.473c0.459,0,0.823,0.104,1.081,0.31
					c0.262,0.21,0.395,0.509,0.395,0.89c0,0.249-0.065,0.465-0.195,0.643c-0.094,0.13-0.215,0.237-0.362,0.318
					c0.178,0.076,0.324,0.187,0.436,0.332c0.146,0.194,0.221,0.436,0.221,0.719c0,0.4-0.135,0.713-0.401,0.929
					c-0.262,0.212-0.634,0.32-1.105,0.32H106.968z M108.459,62.654c0.32,0,0.557-0.057,0.703-0.17
					c0.143-0.11,0.212-0.282,0.212-0.525c0-0.484-0.299-0.719-0.915-0.719h-1.179v1.415H108.459z M108.368,60.673
					c0.304,0,0.533-0.06,0.684-0.179c0.147-0.116,0.219-0.283,0.219-0.51c0-0.443-0.295-0.658-0.902-0.658h-1.088v1.347H108.368z"/>
			</g>
			<g>
				<path fill="#2B3F3E" d="M111.816,63.263c-0.375,0-0.663-0.108-0.857-0.322c-0.191-0.211-0.288-0.523-0.288-0.927v-1.664
					c0-0.093,0.029-0.17,0.088-0.229c0.059-0.059,0.141-0.09,0.237-0.09c0.1,0,0.18,0.031,0.235,0.091
					c0.056,0.059,0.085,0.136,0.085,0.229v1.651c0,0.246,0.047,0.426,0.141,0.535c0.091,0.106,0.24,0.16,0.444,0.16
					c0.241,0,0.43-0.075,0.575-0.23c0.145-0.154,0.218-0.362,0.218-0.618v-1.498c0-0.094,0.03-0.171,0.09-0.23
					c0.059-0.059,0.139-0.089,0.236-0.089s0.177,0.03,0.234,0.09c0.056,0.059,0.085,0.136,0.085,0.229v2.586
					c0,0.089-0.029,0.165-0.086,0.223c-0.057,0.06-0.136,0.09-0.233,0.09c-0.094,0-0.17-0.029-0.228-0.086
					c-0.058-0.059-0.087-0.133-0.087-0.222v-0.06c-0.08,0.093-0.174,0.17-0.282,0.229C112.244,63.212,112.039,63.263,111.816,63.263
					z"/>
			</g>
			<g>
				<path fill="#2B3F3E" d="M114.836,64.345c-0.078,0-0.149-0.025-0.21-0.075c-0.064-0.054-0.097-0.124-0.097-0.208
					c0-0.045,0.011-0.09,0.033-0.132l0.426-0.921l-1.21-2.554c-0.004-0.01-0.032-0.112-0.032-0.123c0-0.083,0.038-0.158,0.11-0.217
					c0.068-0.056,0.145-0.084,0.228-0.084c0.057,0,0.11,0.017,0.16,0.049c0.052,0.033,0.092,0.079,0.116,0.137l0.953,2.139
					l0.952-2.127c0.058-0.125,0.155-0.191,0.282-0.191c0.079,0,0.15,0.026,0.213,0.079c0.066,0.056,0.102,0.128,0.102,0.21
					c0,0.052-0.013,0.099-0.037,0.138l-1.713,3.697c-0.027,0.059-0.066,0.105-0.116,0.136
					C114.943,64.329,114.89,64.345,114.836,64.345z"/>
			</g>
			<g>
				<path fill="#2B3F3E" d="M117.233,63.917c-0.059,0-0.114-0.023-0.161-0.066c-0.048-0.046-0.073-0.102-0.073-0.162
					c0-0.064,0.023-0.121,0.07-0.169c0.079-0.082,0.135-0.182,0.166-0.297c-0.072-0.02-0.135-0.056-0.187-0.108
					c-0.073-0.074-0.111-0.169-0.111-0.282c0-0.121,0.039-0.223,0.117-0.303c0.075-0.079,0.176-0.121,0.288-0.121
					c0.127,0,0.23,0.05,0.307,0.148c0.073,0.091,0.111,0.228,0.111,0.404c0,0.341-0.112,0.632-0.332,0.865
					C117.374,63.886,117.308,63.917,117.233,63.917z"/>
			</g>
			<g>
				<path fill="#2B3F3E" d="M121.538,63.269c-0.312,0-0.615-0.047-0.901-0.141c-0.289-0.096-0.524-0.226-0.697-0.387
					c-0.076-0.071-0.116-0.164-0.116-0.269c0-0.071,0.021-0.136,0.063-0.194c0.062-0.079,0.131-0.095,0.178-0.095
					c0.069,0,0.143,0.028,0.216,0.083c0.364,0.282,0.785,0.425,1.252,0.425c0.332,0,0.589-0.063,0.763-0.187
					c0.168-0.12,0.249-0.289,0.249-0.514c0-0.123-0.036-0.219-0.111-0.292c-0.081-0.08-0.191-0.145-0.327-0.194
					c-0.146-0.052-0.339-0.106-0.584-0.162c-0.34-0.079-0.617-0.162-0.834-0.248c-0.225-0.091-0.41-0.221-0.55-0.388
					c-0.144-0.173-0.216-0.399-0.216-0.672c0-0.258,0.071-0.492,0.212-0.694c0.141-0.2,0.338-0.357,0.588-0.466
					c0.247-0.107,0.531-0.162,0.847-0.162c0.293,0,0.569,0.046,0.823,0.136c0.255,0.091,0.473,0.223,0.647,0.393
					c0.079,0.079,0.12,0.169,0.12,0.268c0,0.075-0.022,0.141-0.064,0.196c-0.059,0.077-0.128,0.093-0.176,0.093
					c-0.06,0-0.13-0.026-0.216-0.079c-0.198-0.162-0.379-0.273-0.545-0.337c-0.161-0.061-0.36-0.092-0.59-0.092
					c-0.32,0-0.571,0.066-0.744,0.196c-0.169,0.127-0.251,0.3-0.251,0.53c0,0.191,0.069,0.33,0.214,0.423
					c0.155,0.102,0.403,0.195,0.737,0.275c0.374,0.09,0.669,0.173,0.883,0.249c0.222,0.079,0.409,0.2,0.558,0.359
					c0.153,0.164,0.231,0.385,0.231,0.657c0,0.256-0.071,0.485-0.213,0.68c-0.14,0.193-0.339,0.346-0.591,0.453
					C122.145,63.215,121.857,63.269,121.538,63.269z"/>
			</g>
			<g>
				<path fill="#2B3F3E" d="M125.176,63.263c-0.479,0-0.864-0.146-1.146-0.432c-0.279-0.287-0.421-0.685-0.421-1.184
					c0-0.317,0.063-0.601,0.185-0.844c0.124-0.246,0.302-0.44,0.527-0.577c0.225-0.138,0.483-0.208,0.77-0.208
					c0.407,0,0.736,0.136,0.978,0.404c0.241,0.265,0.363,0.627,0.363,1.078c0,0.101-0.022,0.175-0.069,0.227
					c-0.046,0.053-0.118,0.08-0.214,0.08h-1.89c0.055,0.606,0.355,0.901,0.917,0.901c0.149,0,0.278-0.02,0.383-0.059
					c0.111-0.042,0.23-0.098,0.356-0.169c0.157-0.09,0.215-0.102,0.251-0.102c0.066,0,0.126,0.028,0.173,0.081
					c0.045,0.05,0.067,0.114,0.067,0.19c0,0.129-0.084,0.246-0.25,0.346c-0.153,0.089-0.315,0.156-0.485,0.201
					C125.503,63.24,125.336,63.263,125.176,63.263z M125.843,61.339c-0.018-0.245-0.086-0.436-0.204-0.569
					c-0.128-0.146-0.305-0.216-0.542-0.216c-0.242,0-0.429,0.072-0.573,0.222c-0.13,0.135-0.213,0.324-0.247,0.563H125.843z"/>
			</g>
			<g>
				<path fill="#2B3F3E" d="M127.335,63.25c-0.093,0-0.171-0.028-0.232-0.083c-0.063-0.057-0.094-0.137-0.094-0.236v-3.883
					c0-0.099,0.031-0.179,0.094-0.235c0.062-0.056,0.14-0.084,0.232-0.084c0.088,0,0.163,0.028,0.225,0.083
					c0.063,0.057,0.094,0.137,0.094,0.236v3.883c0,0.099-0.031,0.179-0.094,0.235C127.498,63.222,127.423,63.25,127.335,63.25z"/>
			</g>
			<g>
				<path fill="#2B3F3E" d="M128.753,63.25c-0.093,0-0.171-0.028-0.232-0.083c-0.063-0.057-0.094-0.137-0.094-0.236v-3.883
					c0-0.099,0.031-0.179,0.094-0.235c0.062-0.056,0.14-0.084,0.232-0.084c0.088,0,0.163,0.028,0.225,0.083
					c0.063,0.057,0.094,0.137,0.094,0.236v3.883c0,0.099-0.031,0.179-0.094,0.235C128.916,63.222,128.841,63.25,128.753,63.25z"/>
			</g>
			<g>
				<path fill="#2B3F3E" d="M130.042,63.917c-0.059,0-0.114-0.023-0.161-0.066c-0.048-0.046-0.073-0.102-0.073-0.162
					c0-0.064,0.023-0.121,0.07-0.169c0.079-0.082,0.135-0.182,0.166-0.297c-0.072-0.02-0.135-0.056-0.187-0.108
					c-0.073-0.074-0.111-0.169-0.111-0.282c0-0.121,0.039-0.223,0.117-0.303c0.077-0.08,0.174-0.121,0.289-0.121
					c0.126,0,0.229,0.05,0.306,0.148c0.074,0.091,0.111,0.224,0.111,0.404c0,0.341-0.112,0.632-0.332,0.865
					C130.183,63.886,130.116,63.917,130.042,63.917z"/>
			</g>
			<g>
				<path fill="#2B3F3E" d="M133.221,63.25c-0.098,0-0.178-0.032-0.236-0.094c-0.059-0.06-0.088-0.14-0.088-0.238v-3.84
					c0-0.095,0.031-0.172,0.093-0.231c0.062-0.058,0.142-0.088,0.238-0.088h1.449c0.47,0,0.842,0.118,1.104,0.35
					c0.266,0.234,0.401,0.567,0.401,0.991s-0.137,0.759-0.405,0.998c-0.266,0.236-0.636,0.355-1.101,0.355h-1.13v1.465
					c0,0.099-0.029,0.179-0.088,0.239C133.4,63.219,133.319,63.25,133.221,63.25z M134.628,60.887c0.612,0,0.909-0.257,0.909-0.787
					c0-0.521-0.297-0.774-0.909-0.774h-1.081v1.561H134.628z"/>
			</g>
			<g>
				<path fill="#2B3F3E" d="M137.03,63.25c-0.092,0-0.17-0.028-0.231-0.083c-0.063-0.058-0.095-0.137-0.095-0.236v-2.581
					c0-0.1,0.034-0.18,0.101-0.237c0.062-0.055,0.138-0.083,0.226-0.083c0.084,0,0.156,0.028,0.216,0.084
					c0.062,0.058,0.092,0.135,0.092,0.229v0.083c0.071-0.086,0.155-0.158,0.251-0.215c0.166-0.1,0.359-0.158,0.572-0.175
					c0.002,0,0.129-0.008,0.131-0.008c0.186,0,0.293,0.104,0.293,0.285c0,0.084-0.025,0.154-0.076,0.208
					c-0.05,0.053-0.127,0.083-0.236,0.093l-0.184,0.019c-0.251,0.022-0.438,0.11-0.556,0.262c-0.124,0.157-0.184,0.337-0.184,0.55
					v1.486c0,0.103-0.03,0.183-0.091,0.238C137.198,63.224,137.122,63.25,137.03,63.25z"/>
			</g>
			<g>
				<path fill="#2B3F3E" d="M140.112,63.263c-0.294,0-0.557-0.067-0.781-0.201c-0.226-0.133-0.402-0.326-0.524-0.572
					c-0.12-0.243-0.182-0.529-0.182-0.85c0-0.32,0.062-0.606,0.182-0.849c0.122-0.247,0.299-0.439,0.524-0.573
					c0.226-0.133,0.488-0.2,0.781-0.2s0.556,0.067,0.783,0.2s0.405,0.325,0.528,0.573c0.12,0.243,0.182,0.529,0.182,0.849
					c0,0.321-0.062,0.607-0.182,0.85c-0.123,0.247-0.301,0.439-0.528,0.572C140.669,63.196,140.405,63.263,140.112,63.263z
					 M140.112,60.579c-0.268,0-0.469,0.087-0.614,0.268c-0.147,0.183-0.222,0.45-0.222,0.793c0,0.348,0.073,0.617,0.219,0.797
					c0.144,0.179,0.346,0.265,0.617,0.265s0.474-0.086,0.617-0.263c0.146-0.18,0.219-0.449,0.219-0.8
					c0-0.342-0.074-0.609-0.222-0.793C140.581,60.667,140.38,60.579,140.112,60.579z"/>
			</g>
			<g>
				<path fill="#2B3F3E" d="M146.33,63.25c-0.092,0-0.169-0.028-0.23-0.083c-0.063-0.058-0.095-0.137-0.095-0.236v-1.645
					c0-0.253-0.044-0.437-0.13-0.546c-0.083-0.104-0.214-0.155-0.4-0.155c-0.228,0-0.401,0.073-0.53,0.225
					c-0.13,0.153-0.196,0.365-0.196,0.63v1.492c0,0.099-0.031,0.179-0.094,0.235c-0.062,0.056-0.14,0.084-0.231,0.084
					c-0.093,0-0.17-0.029-0.229-0.084c-0.06-0.057-0.09-0.136-0.09-0.235v-1.645c0-0.255-0.044-0.438-0.131-0.545
					c-0.083-0.105-0.216-0.156-0.406-0.156c-0.224,0-0.396,0.073-0.526,0.225c-0.133,0.152-0.199,0.364-0.199,0.63v1.492
					c0,0.099-0.03,0.178-0.09,0.234c-0.06,0.056-0.137,0.085-0.229,0.085c-0.092,0-0.17-0.028-0.231-0.083
					c-0.063-0.058-0.095-0.137-0.095-0.236v-2.581c0-0.094,0.031-0.172,0.094-0.231c0.061-0.058,0.139-0.088,0.232-0.088
					c0.09,0,0.165,0.029,0.224,0.085c0.06,0.058,0.09,0.135,0.09,0.229v0.045c0.074-0.088,0.161-0.162,0.26-0.22
					c0.171-0.1,0.369-0.151,0.589-0.151c0.438,0,0.746,0.167,0.92,0.496c0.087-0.131,0.202-0.241,0.343-0.326
					c0.188-0.113,0.402-0.17,0.639-0.17c0.707,0,1.065,0.422,1.065,1.255v1.657c0,0.097-0.03,0.176-0.089,0.234
					C146.5,63.222,146.422,63.25,146.33,63.25z"/>
			</g>
			<g>
				<path fill="#2B3F3E" d="M148.716,63.263c-0.294,0-0.557-0.067-0.781-0.201c-0.227-0.133-0.403-0.326-0.524-0.572
					c-0.12-0.243-0.182-0.529-0.182-0.85c0-0.32,0.062-0.606,0.182-0.849c0.121-0.247,0.298-0.439,0.524-0.573
					c0.226-0.133,0.488-0.2,0.781-0.2s0.556,0.067,0.783,0.2c0.227,0.132,0.404,0.325,0.528,0.573
					c0.12,0.244,0.182,0.529,0.182,0.85c0,0.321-0.062,0.607-0.182,0.85c-0.124,0.247-0.302,0.439-0.528,0.572
					S149.009,63.263,148.716,63.263z M148.716,60.579c-0.268,0-0.469,0.087-0.614,0.268c-0.147,0.184-0.223,0.451-0.223,0.793
					c0,0.347,0.074,0.616,0.22,0.797c0.144,0.179,0.346,0.265,0.617,0.265s0.474-0.086,0.617-0.263
					c0.145-0.179,0.218-0.448,0.218-0.8c0-0.343-0.074-0.61-0.221-0.793C149.185,60.667,148.983,60.579,148.716,60.579z"/>
			</g>
			<g>
				<path fill="#2B3F3E" d="M151.981,63.238c-0.344-0.025-0.604-0.133-0.771-0.318c-0.167-0.184-0.252-0.462-0.252-0.827v-1.459
					h-0.335c-0.087,0-0.158-0.024-0.212-0.07c-0.055-0.049-0.083-0.115-0.083-0.194c0-0.083,0.027-0.151,0.081-0.202
					c0.055-0.05,0.126-0.075,0.214-0.075h0.335v-0.616c0-0.096,0.031-0.177,0.09-0.233c0.059-0.057,0.139-0.086,0.236-0.086
					c0.093,0,0.17,0.029,0.229,0.085c0.06,0.057,0.091,0.136,0.091,0.234v0.616h0.604c0.084,0,0.153,0.025,0.207,0.075
					c0.055,0.053,0.082,0.12,0.082,0.202c0,0.078-0.028,0.144-0.082,0.193c-0.055,0.047-0.124,0.071-0.207,0.071h-0.604v1.484
					c0,0.204,0.039,0.35,0.118,0.435c0.077,0.084,0.199,0.133,0.361,0.144l0.166,0.012c0.246,0.021,0.283,0.179,0.283,0.271
					c0,0.119-0.06,0.185-0.109,0.218c-0.054,0.036-0.126,0.055-0.215,0.055C152.206,63.253,151.981,63.238,151.981,63.238z"/>
			</g>
			<g>
				<path fill="#2B3F3E" d="M154.262,63.263c-0.479,0-0.865-0.146-1.146-0.433s-0.422-0.685-0.422-1.184
					c0-0.317,0.063-0.602,0.187-0.844c0.124-0.246,0.301-0.44,0.525-0.577c0.225-0.138,0.483-0.208,0.77-0.208
					c0.408,0,0.737,0.136,0.979,0.404c0.24,0.266,0.362,0.628,0.362,1.078c0,0.099-0.022,0.175-0.067,0.227
					c-0.047,0.053-0.119,0.081-0.215,0.081h-1.89c0.055,0.606,0.355,0.901,0.917,0.901c0.149,0,0.278-0.02,0.383-0.059
					c0.111-0.042,0.229-0.098,0.356-0.169c0.126-0.072,0.199-0.102,0.251-0.102c0.066,0,0.124,0.027,0.172,0.081
					c0.045,0.049,0.068,0.114,0.068,0.19c0,0.129-0.084,0.246-0.25,0.346c-0.154,0.089-0.316,0.156-0.484,0.201
					C154.589,63.24,154.422,63.263,154.262,63.263z M154.928,61.339c-0.017-0.245-0.085-0.436-0.203-0.569
					c-0.128-0.146-0.306-0.216-0.543-0.216c-0.242,0-0.429,0.072-0.573,0.222c-0.129,0.134-0.212,0.323-0.247,0.563H154.928z"/>
			</g>
			<g>
				<path fill="#2B3F3E" d="M158.694,63.263c-0.202,0-0.391-0.042-0.561-0.124c-0.174-0.083-0.313-0.201-0.413-0.35
					c-0.102-0.151-0.153-0.319-0.153-0.5c0-0.242,0.064-0.435,0.19-0.573c0.126-0.138,0.323-0.233,0.604-0.292
					c0.267-0.056,0.637-0.084,1.103-0.084h0.06v-0.126c0-0.225-0.044-0.389-0.131-0.489c-0.086-0.098-0.227-0.145-0.43-0.145
					c-0.264,0-0.536,0.073-0.808,0.217c-0.159,0.101-0.229,0.113-0.269,0.113c-0.07,0-0.13-0.027-0.178-0.08
					c-0.045-0.05-0.068-0.114-0.068-0.191c0-0.075,0.023-0.142,0.069-0.197c0.042-0.051,0.104-0.1,0.188-0.149
					c0.152-0.086,0.317-0.151,0.507-0.2c0.187-0.048,0.375-0.073,0.559-0.073c0.792,0,1.194,0.42,1.194,1.25v1.663
					c0,0.093-0.029,0.17-0.086,0.229c-0.057,0.06-0.134,0.09-0.228,0.09s-0.172-0.03-0.23-0.089c-0.059-0.058-0.09-0.138-0.09-0.23
					v-0.029c-0.067,0.081-0.147,0.15-0.24,0.206C159.113,63.211,158.915,63.263,158.694,63.263z M159.489,61.808
					c-0.354,0-0.626,0.015-0.807,0.045c-0.173,0.027-0.295,0.073-0.363,0.134c-0.063,0.057-0.095,0.142-0.095,0.259
					c0,0.138,0.049,0.249,0.149,0.339c0.102,0.091,0.232,0.137,0.388,0.137c0.225,0,0.404-0.073,0.548-0.225
					c0.145-0.151,0.214-0.343,0.214-0.587v-0.103H159.489z"/>
			</g>
			<g>
				<path fill="#2B3F3E" d="M163.311,63.25c-0.097,0-0.178-0.03-0.235-0.085c-0.061-0.057-0.091-0.136-0.091-0.234v-1.627
					c0-0.256-0.049-0.444-0.145-0.557c-0.094-0.109-0.244-0.163-0.459-0.163c-0.255,0-0.451,0.075-0.601,0.228
					c-0.148,0.152-0.224,0.363-0.224,0.626v1.492c0,0.098-0.029,0.176-0.086,0.233c-0.058,0.057-0.136,0.086-0.233,0.086
					c-0.097,0-0.176-0.029-0.235-0.084c-0.06-0.057-0.09-0.136-0.09-0.235v-2.581c0-0.094,0.03-0.172,0.089-0.23
					s0.139-0.089,0.236-0.089c0.095,0,0.172,0.03,0.229,0.09c0.056,0.059,0.084,0.133,0.084,0.223v0.069
					c0.084-0.099,0.185-0.18,0.299-0.242c0.186-0.102,0.399-0.153,0.635-0.153c0.76,0,1.146,0.422,1.146,1.255v1.657
					c0,0.097-0.028,0.175-0.085,0.232C163.486,63.222,163.408,63.25,163.311,63.25z"/>
			</g>
			<g>
				<path fill="#2B3F3E" d="M165.604,63.263c-0.274,0-0.521-0.07-0.732-0.208c-0.211-0.138-0.376-0.333-0.491-0.579
					c-0.113-0.243-0.172-0.528-0.172-0.848c0-0.316,0.059-0.599,0.173-0.839c0.114-0.244,0.279-0.436,0.491-0.57
					c0.212-0.133,0.458-0.201,0.731-0.201c0.243,0,0.461,0.055,0.646,0.163c0.108,0.064,0.202,0.145,0.28,0.241v-1.38
					c0-0.092,0.029-0.168,0.086-0.227c0.059-0.058,0.137-0.087,0.234-0.087c0.097,0,0.176,0.03,0.235,0.089
					c0.061,0.06,0.091,0.136,0.091,0.225v3.889c0,0.092-0.031,0.171-0.091,0.23c-0.059,0.059-0.139,0.089-0.235,0.089
					c-0.099,0-0.178-0.031-0.234-0.091c-0.057-0.059-0.086-0.138-0.086-0.229v-0.072c-0.078,0.096-0.172,0.176-0.28,0.24
					C166.065,63.208,165.848,63.263,165.604,63.263z M165.701,60.585c-0.269,0-0.471,0.087-0.618,0.266
					c-0.149,0.181-0.225,0.443-0.225,0.778c0,0.343,0.076,0.612,0.226,0.799c0.147,0.185,0.35,0.275,0.617,0.275
					s0.468-0.087,0.611-0.268c0.145-0.183,0.218-0.45,0.218-0.794c0-0.343-0.073-0.609-0.218-0.791
					C166.169,60.671,165.969,60.585,165.701,60.585z"/>
			</g>
			<g>
				<path fill="#2B3F3E" d="M173.968,63.257c-0.071,0-0.138-0.019-0.198-0.057c-0.065-0.042-0.111-0.1-0.136-0.172l-1.128-3.187
					l-1.14,3.188c-0.028,0.076-0.072,0.131-0.135,0.17c-0.062,0.038-0.128,0.057-0.198,0.057c-0.071,0-0.138-0.019-0.198-0.057
					c-0.065-0.042-0.11-0.099-0.136-0.171l-1.388-3.895c-0.003-0.008-0.023-0.108-0.023-0.117c0-0.088,0.036-0.163,0.104-0.218
					c0.063-0.051,0.139-0.078,0.222-0.078c0.063,0,0.123,0.018,0.177,0.051c0.059,0.036,0.1,0.09,0.121,0.161l1.134,3.269
					l1.151-3.235c0.025-0.077,0.068-0.135,0.126-0.174s0.121-0.059,0.188-0.059c0.068,0,0.133,0.021,0.191,0.063
					c0.058,0.042,0.1,0.102,0.125,0.178l1.134,3.239l1.145-3.282c0.023-0.071,0.062-0.123,0.116-0.158
					c0.054-0.034,0.112-0.052,0.175-0.052c0.084,0,0.157,0.025,0.217,0.076c0.063,0.052,0.098,0.126,0.098,0.213
					c0,0.008-0.019,0.113-0.021,0.121l-1.384,3.896c-0.023,0.072-0.069,0.129-0.134,0.17
					C174.11,63.238,174.042,63.257,173.968,63.257z"/>
			</g>
			<g>
				<path fill="#2B3F3E" d="M176.934,63.263c-0.202,0-0.391-0.042-0.561-0.124c-0.174-0.083-0.313-0.201-0.413-0.35
					c-0.102-0.151-0.153-0.319-0.153-0.5c0-0.242,0.064-0.435,0.19-0.573c0.126-0.138,0.323-0.233,0.604-0.292
					c0.267-0.056,0.637-0.084,1.103-0.084h0.06v-0.126c0-0.225-0.044-0.389-0.131-0.489c-0.086-0.098-0.227-0.145-0.43-0.145
					c-0.264,0-0.536,0.073-0.808,0.217c-0.159,0.101-0.229,0.113-0.269,0.113c-0.07,0-0.13-0.027-0.178-0.08
					c-0.045-0.05-0.068-0.114-0.068-0.191c0-0.075,0.023-0.142,0.069-0.197c0.042-0.051,0.104-0.1,0.188-0.149
					c0.152-0.086,0.317-0.151,0.507-0.2c0.187-0.048,0.375-0.073,0.559-0.073c0.792,0,1.194,0.42,1.194,1.25v1.663
					c0,0.093-0.029,0.17-0.086,0.229c-0.057,0.06-0.134,0.09-0.228,0.09s-0.172-0.03-0.23-0.089c-0.059-0.06-0.09-0.139-0.09-0.23
					v-0.029c-0.067,0.081-0.147,0.15-0.24,0.206C177.353,63.211,177.154,63.263,176.934,63.263z M177.729,61.808
					c-0.354,0-0.626,0.015-0.807,0.045c-0.173,0.027-0.295,0.073-0.363,0.134c-0.063,0.057-0.095,0.142-0.095,0.259
					c0,0.138,0.049,0.249,0.149,0.339c0.102,0.091,0.232,0.137,0.388,0.137c0.225,0,0.404-0.073,0.548-0.225
					c0.145-0.151,0.214-0.343,0.214-0.587v-0.103H177.729z"/>
			</g>
			<g>
				<path fill="#2B3F3E" d="M180.34,63.238c-0.345-0.026-0.604-0.133-0.772-0.318c-0.166-0.183-0.251-0.461-0.251-0.827v-1.459
					h-0.335c-0.087,0-0.158-0.024-0.212-0.07c-0.055-0.049-0.083-0.115-0.083-0.194c0-0.083,0.027-0.151,0.081-0.202
					c0.055-0.05,0.126-0.075,0.214-0.075h0.335v-0.616c0-0.099,0.03-0.178,0.09-0.234c0.059-0.056,0.139-0.085,0.236-0.085
					c0.093,0,0.17,0.029,0.229,0.085c0.06,0.056,0.09,0.135,0.09,0.234v0.616h0.604c0.084,0,0.153,0.025,0.207,0.075
					c0.055,0.051,0.082,0.119,0.082,0.202c0,0.08-0.028,0.145-0.083,0.194c-0.054,0.047-0.123,0.071-0.206,0.071h-0.604v1.484
					c0,0.204,0.04,0.35,0.118,0.435c0.08,0.086,0.198,0.133,0.362,0.144l0.166,0.012c0.246,0.021,0.283,0.179,0.283,0.271
					c0,0.119-0.06,0.185-0.109,0.218c-0.054,0.036-0.126,0.055-0.215,0.055C180.563,63.253,180.34,63.238,180.34,63.238z"/>
			</g>
			<g>
				<path fill="#2B3F3E" d="M182.534,63.263c-0.29,0-0.551-0.067-0.775-0.201c-0.226-0.133-0.402-0.325-0.524-0.568
					c-0.12-0.241-0.182-0.524-0.182-0.841s0.063-0.602,0.188-0.847c0.127-0.249,0.306-0.443,0.532-0.58
					c0.227-0.138,0.49-0.208,0.784-0.208c0.162,0,0.324,0.023,0.482,0.067c0.16,0.044,0.303,0.111,0.425,0.198
					c0.081,0.055,0.139,0.109,0.175,0.164c0.038,0.059,0.058,0.125,0.058,0.196c0,0.074-0.021,0.138-0.063,0.188
					c-0.046,0.055-0.105,0.083-0.178,0.083c-0.012,0-0.115-0.027-0.125-0.033c-0.037-0.018-0.066-0.036-0.093-0.054
					c-0.146-0.097-0.243-0.149-0.335-0.189c-0.085-0.036-0.193-0.055-0.321-0.055c-0.276,0-0.484,0.09-0.635,0.275
					c-0.154,0.187-0.231,0.453-0.231,0.793c0,0.339,0.077,0.603,0.23,0.783c0.15,0.18,0.358,0.267,0.636,0.267
					c0.128,0,0.238-0.019,0.329-0.055c0.095-0.039,0.191-0.092,0.287-0.158c0.05-0.032,0.096-0.057,0.139-0.079
					c0.054-0.027,0.098-0.039,0.138-0.039c0.067,0,0.127,0.029,0.171,0.083c0.042,0.051,0.063,0.114,0.063,0.188
					c0,0.067-0.019,0.13-0.056,0.185c-0.034,0.053-0.094,0.106-0.18,0.165c-0.12,0.082-0.266,0.147-0.435,0.196
					C182.873,63.238,182.703,63.263,182.534,63.263z"/>
			</g>
			<g>
				<path fill="#2B3F3E" d="M186.558,63.25c-0.098,0-0.177-0.029-0.236-0.084c-0.06-0.059-0.09-0.137-0.09-0.235v-1.645
					c0-0.245-0.049-0.426-0.145-0.539c-0.094-0.109-0.244-0.163-0.459-0.163c-0.255,0-0.451,0.075-0.601,0.228
					c-0.15,0.153-0.224,0.358-0.224,0.626v1.492c0,0.098-0.029,0.176-0.086,0.233c-0.058,0.057-0.136,0.086-0.233,0.086
					c-0.097,0-0.176-0.029-0.235-0.084c-0.061-0.058-0.091-0.137-0.091-0.235v-3.889c0-0.09,0.031-0.166,0.094-0.226
					c0.062-0.058,0.14-0.088,0.232-0.088c0.098,0,0.176,0.029,0.233,0.086c0.057,0.057,0.086,0.133,0.086,0.228v1.363
					c0.085-0.097,0.185-0.176,0.3-0.237c0.186-0.099,0.398-0.15,0.634-0.15c0.371,0,0.657,0.108,0.851,0.321
					c0.191,0.211,0.289,0.526,0.289,0.934v1.657c0,0.098-0.03,0.177-0.091,0.234C186.727,63.222,186.649,63.25,186.558,63.25z"/>
			</g>
			<g>
				<path fill="#2B3F3E" d="M189.602,63.22c-0.088,0-0.164-0.028-0.225-0.084c-0.062-0.056-0.095-0.133-0.095-0.223v-3.852
					c0-0.098,0.03-0.178,0.089-0.239s0.141-0.093,0.236-0.093c0.099,0,0.179,0.031,0.238,0.093c0.059,0.061,0.088,0.141,0.088,0.239
					v3.581h1.9c0.092,0,0.166,0.025,0.221,0.074c0.057,0.051,0.086,0.124,0.086,0.215s-0.029,0.164-0.086,0.215
					c-0.055,0.049-0.129,0.074-0.221,0.074H189.602z"/>
			</g>
			<g>
				<path fill="#2B3F3E" d="M193.815,63.263c-0.294,0-0.557-0.067-0.781-0.201c-0.227-0.133-0.403-0.326-0.524-0.572
					c-0.12-0.243-0.182-0.529-0.182-0.85c0-0.32,0.062-0.606,0.182-0.849c0.121-0.247,0.298-0.439,0.524-0.573
					c0.226-0.133,0.488-0.2,0.781-0.2s0.556,0.067,0.783,0.2c0.227,0.132,0.404,0.325,0.528,0.573
					c0.12,0.244,0.182,0.529,0.182,0.85c0,0.321-0.062,0.607-0.182,0.85c-0.124,0.247-0.302,0.439-0.528,0.572
					S194.108,63.263,193.815,63.263z M193.815,60.579c-0.268,0-0.469,0.087-0.614,0.268c-0.147,0.184-0.223,0.451-0.223,0.793
					c0,0.347,0.074,0.616,0.22,0.797c0.144,0.179,0.346,0.265,0.617,0.265s0.474-0.086,0.617-0.263
					c0.145-0.179,0.218-0.448,0.218-0.8c0-0.343-0.074-0.61-0.221-0.793C194.284,60.667,194.083,60.579,193.815,60.579z"/>
			</g>
			<g>
				<path fill="#2B3F3E" d="M197.203,63.263c-0.289,0-0.551-0.067-0.776-0.201c-0.227-0.134-0.402-0.325-0.523-0.569
					c-0.12-0.241-0.182-0.524-0.182-0.84s0.063-0.602,0.188-0.847c0.125-0.248,0.305-0.442,0.532-0.58
					c0.227-0.138,0.49-0.208,0.784-0.208c0.162,0,0.324,0.023,0.482,0.067c0.158,0.044,0.301,0.11,0.424,0.198
					c0.082,0.055,0.14,0.109,0.176,0.164c0.037,0.058,0.057,0.125,0.057,0.196c0,0.075-0.021,0.138-0.062,0.188
					c-0.045,0.054-0.106,0.083-0.179,0.083c-0.012,0-0.114-0.027-0.124-0.033c-0.037-0.018-0.068-0.037-0.094-0.055
					c-0.145-0.096-0.242-0.148-0.334-0.188c-0.086-0.036-0.194-0.055-0.321-0.055c-0.273,0-0.487,0.092-0.636,0.275
					c-0.153,0.187-0.23,0.454-0.23,0.793c0,0.339,0.077,0.603,0.229,0.783c0.148,0.177,0.362,0.267,0.637,0.267
					c0.128,0,0.238-0.019,0.328-0.055c0.095-0.039,0.191-0.092,0.289-0.158c0.049-0.031,0.095-0.057,0.138-0.078
					c0.052-0.026,0.097-0.039,0.138-0.039c0.066,0,0.124,0.028,0.17,0.082c0.043,0.053,0.064,0.118,0.064,0.189
					c0,0.065-0.019,0.127-0.055,0.184c-0.037,0.054-0.096,0.107-0.181,0.166c-0.12,0.082-0.266,0.147-0.435,0.196
					C197.542,63.238,197.372,63.263,197.203,63.263z"/>
			</g>
			<g>
				<path fill="#2B3F3E" d="M199.85,63.263c-0.202,0-0.391-0.042-0.561-0.124c-0.173-0.083-0.311-0.201-0.412-0.35
					c-0.103-0.15-0.154-0.318-0.154-0.5c0-0.242,0.064-0.435,0.19-0.573c0.128-0.138,0.325-0.233,0.604-0.292
					c0.267-0.056,0.638-0.084,1.104-0.084h0.06v-0.126c0-0.225-0.044-0.389-0.131-0.489c-0.086-0.098-0.227-0.145-0.431-0.145
					c-0.263,0-0.535,0.073-0.808,0.217c-0.121,0.077-0.205,0.113-0.268,0.113c-0.069,0-0.132-0.028-0.179-0.08
					c-0.045-0.051-0.067-0.115-0.067-0.191c0-0.075,0.023-0.142,0.069-0.197c0.04-0.051,0.102-0.1,0.188-0.149
					c0.147-0.084,0.317-0.151,0.505-0.2c0.188-0.048,0.376-0.073,0.559-0.073c0.793,0,1.195,0.42,1.195,1.25v1.663
					c0,0.09-0.029,0.169-0.085,0.229c-0.058,0.06-0.135,0.091-0.229,0.091c-0.093,0-0.171-0.03-0.229-0.089
					c-0.059-0.058-0.09-0.138-0.09-0.23v-0.029c-0.067,0.082-0.147,0.15-0.24,0.207C200.27,63.211,200.07,63.263,199.85,63.263z
					 M200.645,61.808c-0.355,0-0.626,0.015-0.806,0.045c-0.172,0.028-0.295,0.073-0.364,0.135c-0.063,0.057-0.094,0.142-0.094,0.259
					c0,0.138,0.049,0.249,0.148,0.339c0.104,0.092,0.23,0.137,0.389,0.137c0.221,0,0.405-0.075,0.547-0.225
					c0.145-0.151,0.215-0.344,0.215-0.587v-0.103H200.645z"/>
			</g>
			<g>
				<path fill="#2B3F3E" d="M202.394,63.25c-0.092,0-0.172-0.029-0.232-0.083c-0.063-0.059-0.094-0.138-0.094-0.236v-3.883
					c0-0.098,0.031-0.177,0.094-0.235c0.061-0.056,0.141-0.084,0.232-0.084c0.088,0,0.163,0.028,0.225,0.083
					c0.063,0.058,0.095,0.137,0.095,0.236v3.883c0,0.099-0.032,0.178-0.095,0.235C202.557,63.222,202.481,63.25,202.394,63.25z"/>
			</g>
			<g>
				<path fill="#488E49" d="M206.789,63.25c-0.072,0-0.139-0.018-0.198-0.054c-0.062-0.036-0.108-0.088-0.14-0.154l-1.749-3.902
					c-0.005-0.01-0.024-0.111-0.024-0.122c0-0.088,0.038-0.165,0.108-0.221c0.065-0.054,0.142-0.081,0.224-0.081
					c0.127,0,0.225,0.064,0.281,0.184l1.51,3.411l1.503-3.409c0.027-0.06,0.066-0.105,0.117-0.137
					c0.052-0.032,0.107-0.049,0.165-0.049c0.084,0,0.159,0.028,0.224,0.083c0.066,0.056,0.103,0.13,0.103,0.213
					c0,0.045-0.011,0.089-0.033,0.131l-1.753,3.898c-0.031,0.068-0.079,0.121-0.142,0.156
					C206.927,63.232,206.86,63.25,206.789,63.25z"/>
			</g>
			<g>
				<path fill="#488E49" d="M209.613,63.25c-0.092,0-0.17-0.028-0.231-0.083c-0.063-0.058-0.095-0.137-0.095-0.236v-2.581
					c0-0.099,0.032-0.178,0.095-0.235c0.061-0.056,0.139-0.084,0.231-0.084c0.092,0,0.172,0.029,0.229,0.085
					c0.06,0.058,0.09,0.137,0.09,0.234v2.581c0,0.103-0.03,0.183-0.091,0.238C209.782,63.223,209.704,63.25,209.613,63.25z
					 M209.613,59.54c-0.116,0-0.213-0.036-0.289-0.105c-0.077-0.072-0.116-0.167-0.116-0.282c0-0.111,0.039-0.204,0.116-0.275
					c0.075-0.07,0.172-0.106,0.289-0.106c0.118,0,0.216,0.036,0.29,0.107c0.075,0.069,0.114,0.162,0.114,0.274
					c0,0.116-0.039,0.211-0.115,0.282C209.828,59.504,209.73,59.54,209.613,59.54z"/>
			</g>
			<g>
				<path fill="#488E49" d="M211.924,63.263c-0.274,0-0.521-0.07-0.732-0.208c-0.211-0.138-0.376-0.333-0.491-0.579
					c-0.113-0.243-0.172-0.528-0.172-0.848c0-0.316,0.059-0.599,0.173-0.839c0.114-0.244,0.279-0.436,0.491-0.57
					c0.212-0.133,0.458-0.201,0.731-0.201c0.245,0,0.462,0.055,0.646,0.164c0.108,0.064,0.202,0.144,0.28,0.24v-1.379
					c0-0.093,0.029-0.169,0.088-0.228c0.058-0.057,0.136-0.086,0.232-0.086c0.098,0,0.177,0.03,0.236,0.089
					c0.06,0.06,0.09,0.135,0.09,0.225v3.889c0,0.092-0.031,0.172-0.09,0.23c-0.059,0.059-0.139,0.089-0.236,0.089
					s-0.177-0.031-0.233-0.091c-0.057-0.058-0.087-0.137-0.087-0.229V62.86c-0.078,0.096-0.172,0.176-0.28,0.24
					C212.387,63.208,212.169,63.263,211.924,63.263z M212.021,60.585c-0.269,0-0.471,0.087-0.618,0.266
					c-0.148,0.181-0.224,0.442-0.224,0.778c0,0.344,0.075,0.613,0.225,0.799c0.147,0.185,0.35,0.275,0.617,0.275
					s0.468-0.087,0.611-0.268c0.145-0.183,0.218-0.45,0.218-0.794c0-0.343-0.073-0.609-0.218-0.791
					C212.489,60.671,212.289,60.585,212.021,60.585z"/>
			</g>
			<g>
				<path fill="#488E49" d="M215.654,63.263c-0.479,0-0.865-0.146-1.146-0.433s-0.422-0.685-0.422-1.184
					c0-0.317,0.063-0.602,0.187-0.844c0.124-0.246,0.301-0.44,0.525-0.577c0.225-0.138,0.483-0.208,0.77-0.208
					c0.407,0,0.736,0.136,0.979,0.404c0.24,0.266,0.362,0.628,0.362,1.078c0,0.101-0.022,0.175-0.069,0.227
					c-0.045,0.053-0.117,0.08-0.214,0.08h-1.889c0.054,0.606,0.354,0.901,0.917,0.901c0.148,0,0.277-0.02,0.383-0.059
					c0.111-0.042,0.229-0.098,0.356-0.169c0.126-0.072,0.199-0.102,0.251-0.102c0.066,0,0.124,0.027,0.172,0.081
					c0.046,0.051,0.068,0.115,0.068,0.19c0,0.128-0.084,0.245-0.25,0.345c-0.154,0.089-0.316,0.157-0.484,0.201
					C215.981,63.24,215.814,63.263,215.654,63.263z M216.32,61.339c-0.017-0.244-0.085-0.435-0.203-0.569
					c-0.128-0.145-0.306-0.216-0.543-0.216c-0.242,0-0.429,0.072-0.573,0.222c-0.13,0.135-0.213,0.324-0.247,0.563H216.32z"/>
			</g>
			<g>
				<path fill="#488E49" d="M218.797,63.263c-0.294,0-0.557-0.067-0.781-0.201c-0.228-0.134-0.404-0.327-0.524-0.572
					c-0.12-0.243-0.182-0.529-0.182-0.85c0-0.32,0.062-0.606,0.182-0.849c0.121-0.246,0.298-0.438,0.524-0.573
					c0.226-0.133,0.488-0.2,0.781-0.2s0.556,0.067,0.783,0.2c0.227,0.132,0.404,0.325,0.528,0.573
					c0.12,0.244,0.182,0.529,0.182,0.85c0,0.321-0.062,0.607-0.182,0.85c-0.124,0.247-0.302,0.439-0.528,0.572
					S219.09,63.263,218.797,63.263z M218.797,60.579c-0.268,0-0.469,0.087-0.614,0.268c-0.147,0.184-0.223,0.451-0.223,0.793
					c0,0.347,0.074,0.616,0.22,0.797c0.144,0.179,0.346,0.265,0.617,0.265s0.474-0.086,0.617-0.263
					c0.145-0.179,0.218-0.448,0.218-0.8c0-0.343-0.074-0.61-0.221-0.793C219.266,60.667,219.064,60.579,218.797,60.579z"/>
			</g>
			<g>
				<path fill="#2B98C7" d="M224.435,63.269c-0.419,0-0.788-0.093-1.097-0.276c-0.311-0.186-0.552-0.454-0.718-0.796
					c-0.164-0.341-0.248-0.748-0.248-1.21c0-0.458,0.084-0.862,0.248-1.204c0.166-0.343,0.408-0.61,0.718-0.796
					c0.308-0.183,0.677-0.276,1.097-0.276c0.279,0,0.548,0.046,0.798,0.136c0.249,0.09,0.471,0.221,0.658,0.391
					c0.081,0.077,0.122,0.167,0.122,0.27c0,0.074-0.021,0.14-0.063,0.195c-0.06,0.078-0.129,0.094-0.177,0.094
					c-0.063,0-0.135-0.026-0.218-0.08c-0.205-0.161-0.389-0.272-0.552-0.336c-0.159-0.062-0.347-0.092-0.557-0.092
					c-0.447,0-0.795,0.146-1.034,0.435c-0.242,0.292-0.364,0.717-0.364,1.263c0,0.551,0.122,0.978,0.364,1.27
					c0.239,0.288,0.587,0.434,1.034,0.434c0.207,0,0.394-0.031,0.555-0.092c0.163-0.062,0.348-0.174,0.549-0.332
					c0.088-0.057,0.159-0.083,0.223-0.083c0.047,0,0.115,0.016,0.175,0.089c0.044,0.055,0.065,0.122,0.065,0.2
					c0,0.103-0.041,0.193-0.12,0.269c-0.188,0.169-0.409,0.301-0.66,0.392C224.982,63.223,224.714,63.269,224.435,63.269z"/>
			</g>
			<g>
				<path fill="#2B98C7" d="M226.922,63.25c-0.092,0-0.17-0.028-0.231-0.083c-0.063-0.057-0.094-0.137-0.094-0.236v-3.883
					c0-0.099,0.031-0.179,0.094-0.235c0.062-0.056,0.14-0.084,0.231-0.084c0.088,0,0.164,0.028,0.226,0.083
					c0.063,0.057,0.094,0.137,0.094,0.236v3.883c0,0.099-0.031,0.179-0.094,0.235C227.086,63.222,227.01,63.25,226.922,63.25z"/>
			</g>
			<g>
				<path fill="#2B98C7" d="M229.037,63.263c-0.202,0-0.391-0.042-0.561-0.124c-0.174-0.083-0.313-0.201-0.413-0.35
					c-0.102-0.151-0.153-0.319-0.153-0.5c0-0.242,0.064-0.435,0.19-0.573c0.126-0.138,0.323-0.233,0.604-0.292
					c0.267-0.056,0.637-0.084,1.103-0.084h0.06v-0.126c0-0.225-0.044-0.389-0.131-0.489c-0.086-0.098-0.227-0.145-0.43-0.145
					c-0.264,0-0.536,0.073-0.808,0.217c-0.159,0.101-0.229,0.113-0.269,0.113c-0.07,0-0.13-0.027-0.178-0.08
					c-0.045-0.05-0.068-0.114-0.068-0.191c0-0.075,0.023-0.142,0.069-0.197c0.042-0.051,0.104-0.1,0.188-0.149
					c0.152-0.086,0.317-0.151,0.507-0.2c0.187-0.048,0.375-0.073,0.559-0.073c0.792,0,1.194,0.42,1.194,1.25v1.663
					c0,0.093-0.029,0.17-0.086,0.229c-0.057,0.06-0.134,0.09-0.228,0.09s-0.172-0.03-0.23-0.089c-0.059-0.06-0.09-0.139-0.09-0.23
					v-0.029c-0.067,0.081-0.147,0.15-0.24,0.206C229.456,63.211,229.258,63.263,229.037,63.263z M229.832,61.808
					c-0.354,0-0.626,0.015-0.807,0.045c-0.173,0.027-0.295,0.073-0.363,0.134c-0.063,0.057-0.095,0.142-0.095,0.259
					c0,0.138,0.049,0.249,0.149,0.339c0.102,0.091,0.232,0.137,0.388,0.137c0.225,0,0.404-0.073,0.548-0.225
					c0.145-0.151,0.214-0.343,0.214-0.587v-0.103H229.832z"/>
			</g>
			<g>
				<path fill="#2B98C7" d="M232.332,63.263c-0.192,0-0.379-0.024-0.554-0.07c-0.176-0.046-0.334-0.113-0.471-0.198
					c-0.084-0.057-0.142-0.108-0.177-0.159c-0.04-0.054-0.061-0.121-0.061-0.199c0-0.071,0.022-0.132,0.066-0.181
					c0.044-0.05,0.104-0.078,0.174-0.078c0.065,0,0.146,0.033,0.255,0.105c0.116,0.069,0.232,0.125,0.349,0.166
					c0.114,0.04,0.253,0.06,0.425,0.06c0.204,0,0.363-0.035,0.474-0.104c0.1-0.063,0.147-0.152,0.147-0.273
					c0-0.073-0.017-0.128-0.051-0.171c-0.036-0.044-0.104-0.086-0.2-0.123c-0.108-0.042-0.266-0.084-0.472-0.128
					c-0.373-0.08-0.636-0.187-0.803-0.327c-0.173-0.146-0.26-0.344-0.26-0.589c0-0.191,0.055-0.362,0.161-0.509
					c0.106-0.146,0.254-0.261,0.438-0.342c0.182-0.082,0.391-0.124,0.62-0.124c0.165,0,0.327,0.023,0.482,0.067
					c0.153,0.044,0.293,0.108,0.415,0.19c0.16,0.113,0.241,0.236,0.241,0.368c0,0.071-0.022,0.133-0.067,0.184
					c-0.047,0.053-0.106,0.081-0.173,0.081c-0.067,0-0.15-0.038-0.264-0.118c-0.106-0.068-0.209-0.123-0.308-0.162
					c-0.092-0.037-0.21-0.056-0.352-0.056c-0.175,0-0.315,0.038-0.418,0.113c-0.097,0.072-0.144,0.164-0.144,0.282
					c0,0.071,0.017,0.129,0.05,0.171c0.034,0.045,0.096,0.086,0.184,0.124c0.097,0.041,0.235,0.082,0.417,0.121
					c0.281,0.062,0.504,0.132,0.661,0.208c0.164,0.078,0.285,0.178,0.359,0.296c0.072,0.119,0.108,0.268,0.108,0.444
					c0,0.281-0.119,0.511-0.354,0.681C233.003,63.179,232.7,63.263,232.332,63.263z"/>
			</g>
			<g>
				<path fill="#2B98C7" d="M235.267,63.263c-0.192,0-0.379-0.024-0.554-0.07c-0.176-0.046-0.334-0.113-0.471-0.198
					c-0.084-0.057-0.142-0.108-0.177-0.159c-0.04-0.056-0.061-0.123-0.061-0.199c0-0.069,0.022-0.13,0.065-0.18
					c0.045-0.051,0.105-0.079,0.175-0.079c0.065,0,0.146,0.033,0.256,0.104c0.115,0.069,0.231,0.125,0.349,0.167
					c0.111,0.04,0.254,0.06,0.424,0.06c0.205,0,0.364-0.035,0.474-0.104c0.1-0.063,0.147-0.152,0.147-0.273
					c0-0.073-0.017-0.128-0.051-0.171c-0.036-0.044-0.104-0.086-0.2-0.123c-0.107-0.042-0.266-0.084-0.472-0.128
					c-0.374-0.081-0.637-0.188-0.803-0.327c-0.173-0.146-0.26-0.344-0.26-0.589c0-0.191,0.055-0.362,0.161-0.509
					c0.106-0.145,0.253-0.26,0.438-0.342c0.182-0.082,0.391-0.124,0.62-0.124c0.165,0,0.327,0.023,0.482,0.067
					c0.153,0.044,0.293,0.108,0.416,0.19c0.16,0.114,0.241,0.237,0.241,0.368c0,0.069-0.023,0.132-0.067,0.184
					c-0.048,0.053-0.107,0.081-0.174,0.081c-0.067,0-0.15-0.038-0.264-0.118c-0.106-0.068-0.209-0.123-0.308-0.162
					c-0.092-0.037-0.21-0.056-0.352-0.056c-0.175,0-0.315,0.038-0.417,0.113c-0.097,0.072-0.144,0.164-0.144,0.282
					c0,0.073,0.016,0.129,0.049,0.171c0.035,0.045,0.098,0.087,0.184,0.124c0.097,0.041,0.235,0.082,0.417,0.121
					c0.283,0.063,0.506,0.132,0.661,0.208c0.164,0.078,0.285,0.178,0.359,0.296c0.072,0.12,0.109,0.269,0.109,0.444
					c0,0.282-0.12,0.511-0.355,0.681C235.938,63.179,235.635,63.263,235.267,63.263z"/>
			</g>
			<g>
				<path fill="#2B98C7" d="M237.45,63.25c-0.093,0-0.171-0.028-0.232-0.083c-0.063-0.057-0.094-0.137-0.094-0.236v-2.581
					c0-0.099,0.031-0.179,0.094-0.235c0.061-0.056,0.139-0.084,0.232-0.084c0.093,0,0.17,0.029,0.229,0.085
					c0.06,0.057,0.09,0.136,0.09,0.234v2.581c0,0.104-0.031,0.184-0.091,0.239C237.617,63.224,237.541,63.25,237.45,63.25z
					 M237.45,59.54c-0.116,0-0.214-0.036-0.29-0.105c-0.077-0.073-0.116-0.167-0.116-0.282c0-0.109,0.04-0.204,0.116-0.274
					c0.075-0.07,0.173-0.106,0.29-0.106s0.215,0.036,0.289,0.107c0.076,0.069,0.115,0.161,0.115,0.274
					c0,0.117-0.039,0.211-0.116,0.282C237.664,59.504,237.566,59.54,237.45,59.54z"/>
			</g>
			<g>
				<path fill="#2B98C7" d="M240.867,63.25c-0.092,0-0.169-0.028-0.23-0.083c-0.063-0.057-0.096-0.137-0.096-0.236v-2.297h-1.188
					v2.297c0,0.099-0.032,0.178-0.095,0.235c-0.062,0.056-0.137,0.084-0.225,0.084c-0.092,0-0.172-0.029-0.231-0.084
					c-0.063-0.058-0.095-0.137-0.095-0.235v-2.297h-0.335c-0.087,0-0.158-0.024-0.212-0.07c-0.055-0.05-0.083-0.117-0.083-0.194
					c0-0.082,0.027-0.149,0.081-0.201c0.055-0.05,0.126-0.076,0.214-0.076h0.335v-0.029c0-0.383,0.099-0.691,0.293-0.915
					c0.196-0.224,0.479-0.353,0.841-0.383c0,0,0.15-0.012,0.153-0.012c0.337,0,0.367,0.18,0.367,0.258
					c0,0.091-0.036,0.249-0.274,0.276l-0.149,0.012c-0.195,0.015-0.344,0.076-0.439,0.181c-0.097,0.106-0.146,0.271-0.146,0.49
					v0.121h1.546c0.088,0,0.159,0.026,0.211,0.076c0.052,0.051,0.078,0.119,0.078,0.201v2.562c0,0.098-0.032,0.177-0.096,0.235
					C241.032,63.221,240.955,63.25,240.867,63.25z M240.867,59.54c-0.116,0-0.213-0.036-0.289-0.105
					c-0.077-0.072-0.116-0.166-0.116-0.282c0-0.111,0.039-0.204,0.116-0.275c0.075-0.07,0.172-0.106,0.289-0.106
					c0.112,0,0.209,0.036,0.286,0.105c0.079,0.071,0.119,0.164,0.119,0.275c0,0.116-0.039,0.21-0.116,0.282
					C241.082,59.504,240.984,59.54,240.867,59.54z"/>
			</g>
			<g>
				<path fill="#2B98C7" d="M243.35,63.263c-0.479,0-0.865-0.146-1.146-0.433s-0.422-0.685-0.422-1.184
					c0-0.317,0.063-0.602,0.187-0.844c0.124-0.246,0.301-0.44,0.525-0.577c0.225-0.138,0.483-0.208,0.77-0.208
					c0.407,0,0.736,0.136,0.979,0.404c0.24,0.266,0.362,0.628,0.362,1.078c0,0.101-0.022,0.175-0.069,0.227
					c-0.045,0.053-0.117,0.08-0.214,0.08h-1.889c0.054,0.606,0.354,0.901,0.917,0.901c0.148,0,0.277-0.02,0.382-0.059
					c0.112-0.042,0.23-0.098,0.356-0.169c0.129-0.073,0.2-0.102,0.252-0.102c0.065,0,0.125,0.028,0.172,0.081
					c0.046,0.051,0.068,0.115,0.068,0.19c0,0.128-0.084,0.245-0.25,0.345c-0.154,0.089-0.316,0.157-0.484,0.201
					C243.677,63.24,243.51,63.263,243.35,63.263z M244.016,61.339c-0.017-0.244-0.085-0.435-0.203-0.569
					c-0.128-0.145-0.306-0.216-0.543-0.216c-0.242,0-0.429,0.072-0.573,0.222c-0.13,0.135-0.213,0.324-0.247,0.563H244.016z"/>
			</g>
			<g>
				<path fill="#2B98C7" d="M246.4,63.263c-0.274,0-0.521-0.07-0.732-0.208c-0.211-0.138-0.376-0.333-0.491-0.579
					c-0.113-0.243-0.172-0.528-0.172-0.848c0-0.316,0.059-0.599,0.173-0.839c0.114-0.244,0.279-0.436,0.491-0.57
					c0.212-0.133,0.458-0.201,0.731-0.201c0.243,0,0.461,0.055,0.646,0.163c0.108,0.064,0.202,0.145,0.28,0.241v-1.38
					c0-0.092,0.029-0.168,0.086-0.227c0.059-0.058,0.137-0.087,0.234-0.087s0.178,0.03,0.236,0.089c0.06,0.06,0.09,0.135,0.09,0.224
					v3.889c0,0.092-0.031,0.171-0.091,0.23c-0.058,0.059-0.137,0.089-0.235,0.089s-0.178-0.031-0.234-0.091
					c-0.057-0.059-0.086-0.138-0.086-0.229v-0.072c-0.078,0.096-0.172,0.176-0.28,0.24C246.862,63.208,246.645,63.263,246.4,63.263z
					 M246.498,60.585c-0.269,0-0.471,0.087-0.618,0.266c-0.149,0.181-0.225,0.443-0.225,0.778c0,0.343,0.076,0.612,0.226,0.799
					c0.147,0.185,0.35,0.275,0.617,0.275s0.468-0.087,0.611-0.268c0.145-0.183,0.218-0.45,0.218-0.794
					c0-0.343-0.073-0.609-0.218-0.791C246.966,60.671,246.766,60.585,246.498,60.585z"/>
			</g>
			<g>
				<path fill="#2B98C7" d="M249.817,63.263c-0.192,0-0.379-0.024-0.554-0.07c-0.177-0.047-0.335-0.114-0.47-0.198
					c-0.085-0.057-0.143-0.108-0.177-0.16c-0.04-0.053-0.061-0.12-0.061-0.198c0-0.071,0.022-0.132,0.066-0.181
					c0.042-0.05,0.103-0.078,0.174-0.078c0.065,0,0.144,0.032,0.255,0.104c0.115,0.069,0.232,0.125,0.349,0.167
					c0.111,0.04,0.255,0.06,0.425,0.06c0.204,0,0.363-0.035,0.473-0.104c0.1-0.063,0.148-0.152,0.148-0.273
					c0-0.071-0.017-0.128-0.051-0.171c-0.036-0.043-0.104-0.085-0.201-0.123c-0.107-0.042-0.265-0.084-0.471-0.128
					c-0.374-0.08-0.638-0.188-0.804-0.327c-0.172-0.145-0.259-0.343-0.259-0.589c0-0.191,0.055-0.362,0.161-0.509
					c0.104-0.145,0.252-0.26,0.437-0.342c0.183-0.082,0.392-0.124,0.621-0.124c0.165,0,0.327,0.023,0.481,0.067
					s0.295,0.108,0.416,0.19c0.16,0.113,0.241,0.236,0.241,0.368c0,0.071-0.022,0.133-0.067,0.184
					c-0.049,0.054-0.106,0.081-0.173,0.081c-0.067,0-0.15-0.038-0.264-0.118c-0.107-0.067-0.21-0.123-0.309-0.162
					c-0.092-0.037-0.21-0.056-0.352-0.056c-0.174,0-0.314,0.038-0.418,0.113c-0.096,0.072-0.143,0.164-0.143,0.282
					c0,0.073,0.016,0.129,0.049,0.171c0.035,0.045,0.098,0.087,0.184,0.124c0.097,0.041,0.236,0.082,0.418,0.121
					c0.281,0.062,0.504,0.132,0.661,0.208c0.165,0.079,0.285,0.178,0.358,0.297c0.072,0.119,0.109,0.268,0.109,0.443
					c0,0.281-0.119,0.511-0.354,0.681C250.489,63.179,250.187,63.263,249.817,63.263z"/>
			</g>
		</g>
	</g>
</g>
</svg>
